<svg width="560" height="200" viewBox="0 0 560 200" fill="none" xmlns="http://www.w3.org/2000/svg">
<path d="M27 112.5H533C537.142 112.5 540.5 115.858 540.5 120V152C540.5 156.142 537.142 159.5 533 159.5H27C22.8579 159.5 19.5 156.142 19.5 152V120L19.5098 119.614C19.7041 115.779 22.7792 112.704 26.6143 112.51L27 112.5Z" fill="#2E2E2E"/>
<path d="M27 112.5H533C537.142 112.5 540.5 115.858 540.5 120V152C540.5 156.142 537.142 159.5 533 159.5H27C22.8579 159.5 19.5 156.142 19.5 152V120L19.5098 119.614C19.7041 115.779 22.7792 112.704 26.6143 112.51L27 112.5Z" stroke="#323232"/>
<path d="M36.648 142V132.496H33.208V130.8H41.944V132.496H38.504V142H36.648ZM43.2603 142V134H45.0363V142H43.2603ZM44.1562 132.48C43.8683 132.48 43.6176 132.379 43.4043 132.176C43.2016 131.963 43.1003 131.712 43.1003 131.424C43.1003 131.136 43.2016 130.891 43.4043 130.688C43.6176 130.485 43.8683 130.384 44.1562 130.384C44.4443 130.384 44.6896 130.485 44.8923 130.688C45.1056 130.891 45.2123 131.136 45.2123 131.424C45.2123 131.712 45.1056 131.963 44.8923 132.176C44.6896 132.379 44.4443 132.48 44.1562 132.48ZM50.3323 142.192C49.4896 142.192 48.8443 141.984 48.3963 141.568C47.9589 141.141 47.7403 140.533 47.7403 139.744V131.504H49.5163V139.408C49.5163 139.781 49.6016 140.064 49.7723 140.256C49.9536 140.448 50.2149 140.544 50.5563 140.544C50.6629 140.544 50.7803 140.523 50.9083 140.48C51.0363 140.437 51.1803 140.357 51.3403 140.24L51.9963 141.6C51.7189 141.792 51.4416 141.936 51.1643 142.032C50.8869 142.139 50.6096 142.192 50.3323 142.192ZM46.4123 135.536V134H51.6763V135.536H46.4123ZM53.4295 142V130.8H55.2215V142H53.4295ZM60.7788 142.192C60.0001 142.192 59.3068 142.016 58.6988 141.664C58.1014 141.301 57.6268 140.805 57.2747 140.176C56.9334 139.547 56.7628 138.821 56.7628 138C56.7628 137.179 56.9388 136.453 57.2908 135.824C57.6428 135.195 58.1228 134.704 58.7308 134.352C59.3494 133.989 60.0534 133.808 60.8428 133.808C61.5574 133.808 62.2028 133.995 62.7788 134.368C63.3548 134.731 63.8081 135.259 64.1388 135.952C64.4801 136.645 64.6508 137.472 64.6508 138.432H58.3628L58.6028 138.208C58.6028 138.699 58.7094 139.125 58.9228 139.488C59.1361 139.84 59.4188 140.112 59.7708 140.304C60.1228 140.496 60.5121 140.592 60.9388 140.592C61.4294 140.592 61.8348 140.485 62.1548 140.272C62.4748 140.048 62.7254 139.76 62.9068 139.408L64.4908 140.08C64.2668 140.507 63.9788 140.88 63.6268 141.2C63.2854 141.52 62.8748 141.765 62.3948 141.936C61.9254 142.107 61.3868 142.192 60.7788 142.192ZM58.7148 137.28L58.4588 137.056H62.9708L62.7308 137.28C62.7308 136.843 62.6348 136.485 62.4428 136.208C62.2508 135.92 62.0054 135.707 61.7068 135.568C61.4188 135.419 61.1148 135.344 60.7948 135.344C60.4748 135.344 60.1548 135.419 59.8348 135.568C59.5148 135.707 59.2481 135.92 59.0348 136.208C58.8214 136.485 58.7148 136.843 58.7148 137.28Z" fill="#FDFDFD"/>
<path d="M512 133.5L517 138.5L522 133.5" stroke="#FDFDFD" stroke-width="1.6" stroke-linecap="round" stroke-linejoin="round"/>
<path d="M27 39.5H533C537.142 39.5 540.5 42.8579 540.5 47V79C540.5 83.1421 537.142 86.5 533 86.5H27C22.8579 86.5 19.5 83.1421 19.5 79V47L19.5098 46.6143C19.7041 42.7792 22.7792 39.7041 26.6143 39.5098L27 39.5Z" fill="#FDFDFD"/>
<path d="M27 39.5H533C537.142 39.5 540.5 42.8579 540.5 47V79C540.5 83.1421 537.142 86.5 533 86.5H27C22.8579 86.5 19.5 83.1421 19.5 79V47L19.5098 46.6143C19.7041 42.7792 22.7792 39.7041 26.6143 39.5098L27 39.5Z" stroke="#BFBFBF"/>
<path d="M36.648 69V59.496H33.208V57.8H41.944V59.496H38.504V69H36.648ZM43.2603 69V61H45.0363V69H43.2603ZM44.1562 59.48C43.8683 59.48 43.6176 59.3787 43.4043 59.176C43.2016 58.9627 43.1003 58.712 43.1003 58.424C43.1003 58.136 43.2016 57.8907 43.4043 57.688C43.6176 57.4853 43.8683 57.384 44.1562 57.384C44.4443 57.384 44.6896 57.4853 44.8923 57.688C45.1056 57.8907 45.2123 58.136 45.2123 58.424C45.2123 58.712 45.1056 58.9627 44.8923 59.176C44.6896 59.3787 44.4443 59.48 44.1562 59.48ZM50.3323 69.192C49.4896 69.192 48.8443 68.984 48.3963 68.568C47.9589 68.1413 47.7403 67.5333 47.7403 66.744V58.504H49.5163V66.408C49.5163 66.7813 49.6016 67.064 49.7723 67.256C49.9536 67.448 50.2149 67.544 50.5563 67.544C50.6629 67.544 50.7803 67.5227 50.9083 67.48C51.0363 67.4373 51.1803 67.3573 51.3403 67.24L51.9963 68.6C51.7189 68.792 51.4416 68.936 51.1643 69.032C50.8869 69.1387 50.6096 69.192 50.3323 69.192ZM46.4123 62.536V61H51.6763V62.536H46.4123ZM53.4295 69V57.8H55.2215V69H53.4295ZM60.7788 69.192C60.0001 69.192 59.3068 69.016 58.6988 68.664C58.1014 68.3013 57.6268 67.8053 57.2747 67.176C56.9334 66.5467 56.7628 65.8213 56.7628 65C56.7628 64.1787 56.9388 63.4533 57.2908 62.824C57.6428 62.1947 58.1228 61.704 58.7308 61.352C59.3494 60.9893 60.0534 60.808 60.8428 60.808C61.5574 60.808 62.2028 60.9947 62.7788 61.368C63.3548 61.7307 63.8081 62.2587 64.1388 62.952C64.4801 63.6453 64.6508 64.472 64.6508 65.432H58.3628L58.6028 65.208C58.6028 65.6987 58.7094 66.1253 58.9228 66.488C59.1361 66.84 59.4188 67.112 59.7708 67.304C60.1228 67.496 60.5121 67.592 60.9388 67.592C61.4294 67.592 61.8348 67.4853 62.1548 67.272C62.4748 67.048 62.7254 66.76 62.9068 66.408L64.4908 67.08C64.2668 67.5067 63.9788 67.88 63.6268 68.2C63.2854 68.52 62.8748 68.7653 62.3948 68.936C61.9254 69.1067 61.3868 69.192 60.7788 69.192ZM58.7148 64.28L58.4588 64.056H62.9708L62.7308 64.28C62.7308 63.8427 62.6348 63.4853 62.4428 63.208C62.2508 62.92 62.0054 62.7067 61.7068 62.568C61.4188 62.4187 61.1148 62.344 60.7948 62.344C60.4748 62.344 60.1548 62.4187 59.8348 62.568C59.5148 62.7067 59.2481 62.92 59.0348 63.208C58.8214 63.4853 58.7148 63.8427 58.7148 64.28Z" fill="#1C1C1C"/>
<path d="M512 60.5L517 65.5L522 60.5" stroke="#1C1C1C" stroke-width="1.6" stroke-linecap="round" stroke-linejoin="round"/>
</svg>
