<svg width="560" height="437" viewBox="0 0 560 437" fill="none" xmlns="http://www.w3.org/2000/svg">
<path d="M108 35C108 30.5817 111.582 27 116 27H443C447.418 27 451 30.5817 451 35V209C451 213.418 447.418 217 443 217H116C111.582 217 108 213.418 108 209V35Z" fill="#5B5B5B"/>
<path d="M240 109.639C240 108.252 240 107.559 240.058 106.975C240.616 101.342 245.072 96.8867 250.704 96.3286C251.288 96.2708 252.019 96.2708 253.48 96.2708C254.044 96.2708 254.325 96.2708 254.564 96.2563C257.617 96.0714 260.29 94.1447 261.431 91.307C261.52 91.0848 261.604 90.8343 261.771 90.3333C261.938 89.8322 262.021 89.5817 262.111 89.3595C263.251 86.5219 265.925 84.5951 268.977 84.4102C269.216 84.3958 269.481 84.3958 270.009 84.3958H289.158C289.686 84.3958 289.95 84.3958 290.189 84.4102C293.242 84.5951 295.915 86.5219 297.056 89.3595C297.145 89.5817 297.229 89.8322 297.396 90.3333C297.563 90.8343 297.646 91.0848 297.736 91.307C298.876 94.1447 301.55 96.0714 304.602 96.2563C304.841 96.2708 305.123 96.2708 305.686 96.2708C307.148 96.2708 307.879 96.2708 308.463 96.3286C314.095 96.8867 318.551 101.342 319.109 106.975C319.167 107.559 319.167 108.252 319.167 109.639V140.604C319.167 147.255 319.167 150.58 317.872 153.12C316.734 155.355 314.917 157.171 312.683 158.31C310.142 159.604 306.817 159.604 300.167 159.604H259C252.349 159.604 249.024 159.604 246.484 158.31C244.249 157.171 242.433 155.355 241.294 153.12C240 150.58 240 147.255 240 140.604V109.639Z" stroke="#2E2E2E" stroke-width="6" stroke-linecap="round" stroke-linejoin="round"/>
<path d="M279.5 139.102C288.245 139.102 295.334 132.295 295.334 123.9C295.334 115.505 288.245 108.699 279.5 108.699C270.756 108.699 263.667 115.505 263.667 123.9C263.667 132.295 270.756 139.102 279.5 139.102Z" stroke="#2E2E2E" stroke-width="6" stroke-linecap="round" stroke-linejoin="round"/>
<path d="M119.648 239V229.496H116.208V227.8H124.944V229.496H121.504V239H119.648ZM126.26 239V231H128.036V239H126.26ZM127.156 229.48C126.868 229.48 126.618 229.379 126.404 229.176C126.202 228.963 126.1 228.712 126.1 228.424C126.1 228.136 126.202 227.891 126.404 227.688C126.618 227.485 126.868 227.384 127.156 227.384C127.444 227.384 127.69 227.485 127.892 227.688C128.106 227.891 128.212 228.136 128.212 228.424C128.212 228.712 128.106 228.963 127.892 229.176C127.69 229.379 127.444 229.48 127.156 229.48ZM133.332 239.192C132.49 239.192 131.844 238.984 131.396 238.568C130.959 238.141 130.74 237.533 130.74 236.744V228.504H132.516V236.408C132.516 236.781 132.602 237.064 132.772 237.256C132.954 237.448 133.215 237.544 133.556 237.544C133.663 237.544 133.78 237.523 133.908 237.48C134.036 237.437 134.18 237.357 134.34 237.24L134.996 238.6C134.719 238.792 134.442 238.936 134.164 239.032C133.887 239.139 133.61 239.192 133.332 239.192ZM129.412 232.536V231H134.676V232.536H129.412ZM136.43 239V227.8H138.222V239H136.43ZM143.779 239.192C143 239.192 142.307 239.016 141.699 238.664C141.101 238.301 140.627 237.805 140.275 237.176C139.933 236.547 139.763 235.821 139.763 235C139.763 234.179 139.939 233.453 140.291 232.824C140.643 232.195 141.123 231.704 141.731 231.352C142.349 230.989 143.053 230.808 143.843 230.808C144.557 230.808 145.203 230.995 145.779 231.368C146.355 231.731 146.808 232.259 147.139 232.952C147.48 233.645 147.651 234.472 147.651 235.432H141.363L141.603 235.208C141.603 235.699 141.709 236.125 141.923 236.488C142.136 236.84 142.419 237.112 142.771 237.304C143.123 237.496 143.512 237.592 143.939 237.592C144.429 237.592 144.835 237.485 145.155 237.272C145.475 237.048 145.725 236.76 145.907 236.408L147.491 237.08C147.267 237.507 146.979 237.88 146.627 238.2C146.285 238.52 145.875 238.765 145.395 238.936C144.925 239.107 144.387 239.192 143.779 239.192ZM141.715 234.28L141.459 234.056H145.971L145.731 234.28C145.731 233.843 145.635 233.485 145.443 233.208C145.251 232.92 145.005 232.707 144.707 232.568C144.419 232.419 144.115 232.344 143.795 232.344C143.475 232.344 143.155 232.419 142.835 232.568C142.515 232.707 142.248 232.92 142.035 233.208C141.821 233.485 141.715 233.843 141.715 234.28Z" fill="#FDFDFD"/>
<path d="M117.302 259V249.2H120.396C121.068 249.2 121.642 249.303 122.118 249.508C122.594 249.713 122.963 250.017 123.224 250.418C123.485 250.81 123.616 251.291 123.616 251.86C123.616 252.336 123.509 252.756 123.294 253.12C123.079 253.475 122.776 253.764 122.384 253.988C122.869 254.221 123.243 254.534 123.504 254.926C123.775 255.318 123.91 255.785 123.91 256.326C123.91 256.895 123.784 257.381 123.532 257.782C123.28 258.174 122.921 258.477 122.454 258.692C121.997 258.897 121.446 259 120.802 259H117.302ZM118.478 257.936H120.746C121.362 257.936 121.843 257.791 122.188 257.502C122.543 257.203 122.72 256.797 122.72 256.284C122.72 255.733 122.519 255.304 122.118 254.996C121.717 254.679 121.157 254.52 120.438 254.52H118.478V257.936ZM118.478 253.498H120.69C121.231 253.498 121.656 253.353 121.964 253.064C122.272 252.775 122.426 252.373 122.426 251.86C122.426 251.328 122.244 250.922 121.88 250.642C121.525 250.353 121.021 250.208 120.368 250.208H118.478V253.498ZM128.633 259.168C127.951 259.168 127.345 259.014 126.813 258.706C126.29 258.389 125.879 257.955 125.581 257.404C125.282 256.853 125.133 256.219 125.133 255.5C125.133 254.781 125.277 254.147 125.567 253.596C125.865 253.045 126.276 252.616 126.799 252.308C127.331 251.991 127.933 251.832 128.605 251.832C129.295 251.832 129.902 251.991 130.425 252.308C130.957 252.616 131.367 253.045 131.657 253.596C131.955 254.147 132.105 254.781 132.105 255.5C132.105 256.219 131.955 256.853 131.657 257.404C131.367 257.955 130.961 258.389 130.439 258.706C129.916 259.014 129.314 259.168 128.633 259.168ZM128.633 258.132C129.099 258.132 129.505 258.02 129.851 257.796C130.196 257.572 130.467 257.264 130.663 256.872C130.868 256.48 130.971 256.023 130.971 255.5C130.971 254.977 130.868 254.52 130.663 254.128C130.467 253.736 130.191 253.428 129.837 253.204C129.482 252.98 129.071 252.868 128.605 252.868C128.147 252.868 127.741 252.98 127.387 253.204C127.041 253.428 126.766 253.736 126.561 254.128C126.365 254.52 126.267 254.977 126.267 255.5C126.267 256.013 126.365 256.471 126.561 256.872C126.766 257.264 127.046 257.572 127.401 257.796C127.765 258.02 128.175 258.132 128.633 258.132ZM138.84 259L138.784 257.698V249.2H139.904V259H138.84ZM136.418 259.168C135.792 259.168 135.242 259.014 134.766 258.706C134.29 258.398 133.916 257.969 133.646 257.418C133.384 256.858 133.254 256.219 133.254 255.5C133.254 254.772 133.384 254.133 133.646 253.582C133.916 253.031 134.29 252.602 134.766 252.294C135.242 251.986 135.792 251.832 136.418 251.832C137.006 251.832 137.519 251.986 137.958 252.294C138.406 252.602 138.751 253.031 138.994 253.582C139.236 254.133 139.358 254.772 139.358 255.5C139.358 256.219 139.236 256.858 138.994 257.418C138.751 257.969 138.406 258.398 137.958 258.706C137.519 259.014 137.006 259.168 136.418 259.168ZM136.67 258.146C137.08 258.146 137.444 258.034 137.762 257.81C138.079 257.586 138.326 257.273 138.504 256.872C138.69 256.471 138.784 256.013 138.784 255.5C138.784 254.987 138.69 254.529 138.504 254.128C138.326 253.727 138.079 253.414 137.762 253.19C137.444 252.966 137.076 252.854 136.656 252.854C136.217 252.854 135.825 252.966 135.48 253.19C135.144 253.414 134.878 253.727 134.682 254.128C134.486 254.529 134.388 254.987 134.388 255.5C134.388 256.013 134.486 256.471 134.682 256.872C134.878 257.273 135.148 257.586 135.494 257.81C135.839 258.034 136.231 258.146 136.67 258.146ZM142.493 261.968C142.315 261.968 142.11 261.931 141.877 261.856C141.643 261.791 141.396 261.702 141.135 261.59L141.555 260.652C141.769 260.745 141.956 260.815 142.115 260.862C142.283 260.909 142.413 260.932 142.507 260.932C142.759 260.932 142.964 260.862 143.123 260.722C143.291 260.591 143.431 260.4 143.543 260.148L144.341 258.244L146.931 252H148.135L144.775 259.98C144.597 260.391 144.411 260.745 144.215 261.044C144.028 261.343 143.799 261.571 143.529 261.73C143.258 261.889 142.913 261.968 142.493 261.968ZM144.033 259L141.009 252H142.199L144.803 258.23L145.139 259H144.033ZM155.323 259.168C154.642 259.168 154.114 258.991 153.741 258.636C153.368 258.281 153.181 257.782 153.181 257.138V249.816H154.301V257.026C154.301 257.381 154.394 257.656 154.581 257.852C154.777 258.039 155.048 258.132 155.393 258.132C155.505 258.132 155.612 258.118 155.715 258.09C155.827 258.053 155.972 257.969 156.149 257.838L156.583 258.748C156.34 258.907 156.121 259.014 155.925 259.07C155.729 259.135 155.528 259.168 155.323 259.168ZM151.963 252.994V252H156.401V252.994H151.963ZM161.007 259.168C160.326 259.168 159.724 259.014 159.201 258.706C158.678 258.389 158.268 257.955 157.969 257.404C157.68 256.853 157.535 256.219 157.535 255.5C157.535 254.781 157.68 254.147 157.969 253.596C158.268 253.045 158.674 252.616 159.187 252.308C159.71 251.991 160.307 251.832 160.979 251.832C161.632 251.832 162.197 251.995 162.673 252.322C163.149 252.639 163.518 253.087 163.779 253.666C164.04 254.245 164.171 254.926 164.171 255.71H158.389L158.669 255.472C158.669 256.032 158.767 256.513 158.963 256.914C159.168 257.315 159.453 257.623 159.817 257.838C160.181 258.043 160.596 258.146 161.063 258.146C161.558 258.146 161.973 258.029 162.309 257.796C162.654 257.563 162.92 257.255 163.107 256.872L164.073 257.362C163.896 257.726 163.658 258.043 163.359 258.314C163.07 258.585 162.724 258.795 162.323 258.944C161.931 259.093 161.492 259.168 161.007 259.168ZM158.739 254.996L158.445 254.772H163.275L162.981 255.01C162.981 254.562 162.892 254.175 162.715 253.848C162.538 253.521 162.3 253.269 162.001 253.092C161.702 252.915 161.357 252.826 160.965 252.826C160.582 252.826 160.218 252.915 159.873 253.092C159.537 253.269 159.262 253.521 159.047 253.848C158.842 254.165 158.739 254.548 158.739 254.996ZM164.675 259L167.531 254.982L169.547 252H170.877L168.217 255.78L166.033 259H164.675ZM169.701 259L167.545 255.78L164.857 252H166.187L168.217 254.982L171.045 259H169.701ZM174.792 259.168C174.11 259.168 173.583 258.991 173.21 258.636C172.836 258.281 172.65 257.782 172.65 257.138V249.816H173.77V257.026C173.77 257.381 173.863 257.656 174.05 257.852C174.246 258.039 174.516 258.132 174.862 258.132C174.974 258.132 175.081 258.118 175.184 258.09C175.296 258.053 175.44 257.969 175.618 257.838L176.052 258.748C175.809 258.907 175.59 259.014 175.394 259.07C175.198 259.135 174.997 259.168 174.792 259.168ZM171.432 252.994V252H175.87V252.994H171.432ZM177.031 260.61L177.829 257.656H179.089L177.997 260.61H177.031ZM191.18 259L187.246 249.2H188.436L192.426 259H191.18ZM183.214 259L187.204 249.2H188.408L184.474 259H183.214ZM185.104 256.214V255.15H190.55V256.214H185.104ZM198.627 259L198.571 257.698V249.2H199.691V259H198.627ZM196.205 259.168C195.579 259.168 195.029 259.014 194.553 258.706C194.077 258.398 193.703 257.969 193.433 257.418C193.171 256.858 193.041 256.219 193.041 255.5C193.041 254.772 193.171 254.133 193.433 253.582C193.703 253.031 194.077 252.602 194.553 252.294C195.029 251.986 195.579 251.832 196.205 251.832C196.793 251.832 197.306 251.986 197.745 252.294C198.193 252.602 198.538 253.031 198.781 253.582C199.023 254.133 199.145 254.772 199.145 255.5C199.145 256.219 199.023 256.858 198.781 257.418C198.538 257.969 198.193 258.398 197.745 258.706C197.306 259.014 196.793 259.168 196.205 259.168ZM196.457 258.146C196.867 258.146 197.231 258.034 197.549 257.81C197.866 257.586 198.113 257.273 198.291 256.872C198.477 256.471 198.571 256.013 198.571 255.5C198.571 254.987 198.477 254.529 198.291 254.128C198.113 253.727 197.866 253.414 197.549 253.19C197.231 252.966 196.863 252.854 196.443 252.854C196.004 252.854 195.612 252.966 195.267 253.19C194.931 253.414 194.665 253.727 194.469 254.128C194.273 254.529 194.175 254.987 194.175 255.5C194.175 256.013 194.273 256.471 194.469 256.872C194.665 257.273 194.935 257.586 195.281 257.81C195.626 258.034 196.018 258.146 196.457 258.146ZM206.83 259L206.774 257.698V249.2H207.894V259H206.83ZM204.408 259.168C203.783 259.168 203.232 259.014 202.756 258.706C202.28 258.398 201.907 257.969 201.636 257.418C201.375 256.858 201.244 256.219 201.244 255.5C201.244 254.772 201.375 254.133 201.636 253.582C201.907 253.031 202.28 252.602 202.756 252.294C203.232 251.986 203.783 251.832 204.408 251.832C204.996 251.832 205.509 251.986 205.948 252.294C206.396 252.602 206.741 253.031 206.984 253.582C207.227 254.133 207.348 254.772 207.348 255.5C207.348 256.219 207.227 256.858 206.984 257.418C206.741 257.969 206.396 258.398 205.948 258.706C205.509 259.014 204.996 259.168 204.408 259.168ZM204.66 258.146C205.071 258.146 205.435 258.034 205.752 257.81C206.069 257.586 206.317 257.273 206.494 256.872C206.681 256.471 206.774 256.013 206.774 255.5C206.774 254.987 206.681 254.529 206.494 254.128C206.317 253.727 206.069 253.414 205.752 253.19C205.435 252.966 205.066 252.854 204.646 252.854C204.207 252.854 203.815 252.966 203.47 253.19C203.134 253.414 202.868 253.727 202.672 254.128C202.476 254.529 202.378 254.987 202.378 255.5C202.378 256.013 202.476 256.471 202.672 256.872C202.868 257.273 203.139 257.586 203.484 257.81C203.829 258.034 204.221 258.146 204.66 258.146ZM213.312 259V252H214.362L214.418 252.98C214.633 252.607 214.908 252.322 215.244 252.126C215.58 251.93 215.972 251.832 216.42 251.832C216.98 251.832 217.456 251.963 217.848 252.224C218.249 252.485 218.539 252.882 218.716 253.414C218.912 252.901 219.197 252.509 219.57 252.238C219.953 251.967 220.405 251.832 220.928 251.832C221.712 251.832 222.328 252.093 222.776 252.616C223.233 253.139 223.457 253.932 223.448 254.996V259H222.328V255.416C222.328 254.725 222.253 254.198 222.104 253.834C221.964 253.47 221.773 253.223 221.53 253.092C221.287 252.952 221.007 252.882 220.69 252.882C220.139 252.882 219.71 253.101 219.402 253.54C219.094 253.969 218.94 254.581 218.94 255.374V259H217.82V255.416C217.82 254.725 217.745 254.198 217.596 253.834C217.456 253.47 217.26 253.223 217.008 253.092C216.765 252.952 216.485 252.882 216.168 252.882C215.627 252.882 215.202 253.101 214.894 253.54C214.586 253.969 214.432 254.581 214.432 255.374V259H213.312ZM229.532 259L229.476 257.852V255.304C229.476 254.753 229.416 254.301 229.294 253.946C229.173 253.582 228.982 253.307 228.72 253.12C228.459 252.933 228.118 252.84 227.698 252.84C227.316 252.84 226.984 252.919 226.704 253.078C226.434 253.227 226.21 253.47 226.032 253.806L225.024 253.414C225.202 253.087 225.416 252.807 225.668 252.574C225.92 252.331 226.214 252.149 226.55 252.028C226.886 251.897 227.269 251.832 227.698 251.832C228.352 251.832 228.888 251.963 229.308 252.224C229.738 252.476 230.06 252.854 230.274 253.358C230.489 253.853 230.592 254.469 230.582 255.206L230.568 259H229.532ZM227.432 259.168C226.611 259.168 225.967 258.981 225.5 258.608C225.043 258.225 224.814 257.698 224.814 257.026C224.814 256.317 225.048 255.775 225.514 255.402C225.99 255.019 226.653 254.828 227.502 254.828H229.504V255.766H227.754C227.101 255.766 226.634 255.873 226.354 256.088C226.084 256.303 225.948 256.611 225.948 257.012C225.948 257.376 226.084 257.665 226.354 257.88C226.625 258.085 227.003 258.188 227.488 258.188C227.89 258.188 228.24 258.104 228.538 257.936C228.837 257.759 229.066 257.511 229.224 257.194C229.392 256.867 229.476 256.485 229.476 256.046H229.952C229.952 256.998 229.738 257.759 229.308 258.328C228.879 258.888 228.254 259.168 227.432 259.168ZM232.427 259V252H233.547V259H232.427ZM233.001 250.376C232.814 250.376 232.651 250.306 232.511 250.166C232.371 250.026 232.301 249.863 232.301 249.676C232.301 249.48 232.371 249.317 232.511 249.186C232.651 249.046 232.814 248.976 233.001 248.976C233.197 248.976 233.36 249.046 233.491 249.186C233.631 249.317 233.701 249.48 233.701 249.676C233.701 249.863 233.631 250.026 233.491 250.166C233.36 250.306 233.197 250.376 233.001 250.376ZM235.611 259V252H236.661L236.731 253.288V259H235.611ZM240.525 259V255.416H241.645V259H240.525ZM240.525 255.416C240.525 254.725 240.446 254.198 240.287 253.834C240.128 253.47 239.909 253.223 239.629 253.092C239.349 252.952 239.032 252.882 238.677 252.882C238.061 252.882 237.58 253.101 237.235 253.54C236.899 253.969 236.731 254.581 236.731 255.374H236.185C236.185 254.637 236.292 254.002 236.507 253.47C236.722 252.938 237.034 252.532 237.445 252.252C237.856 251.972 238.35 251.832 238.929 251.832C239.48 251.832 239.956 251.944 240.357 252.168C240.768 252.383 241.085 252.728 241.309 253.204C241.542 253.68 241.654 254.305 241.645 255.08V255.416H240.525ZM249.508 259.168C248.827 259.168 248.3 258.991 247.926 258.636C247.553 258.281 247.366 257.782 247.366 257.138V249.816H248.486V257.026C248.486 257.381 248.58 257.656 248.766 257.852C248.962 258.039 249.233 258.132 249.578 258.132C249.69 258.132 249.798 258.118 249.9 258.09C250.012 258.053 250.157 257.969 250.334 257.838L250.768 258.748C250.526 258.907 250.306 259.014 250.11 259.07C249.914 259.135 249.714 259.168 249.508 259.168ZM246.148 252.994V252H250.586V252.994H246.148ZM256.438 259L256.382 257.852V255.304C256.382 254.753 256.322 254.301 256.2 253.946C256.079 253.582 255.888 253.307 255.626 253.12C255.365 252.933 255.024 252.84 254.604 252.84C254.222 252.84 253.89 252.919 253.61 253.078C253.34 253.227 253.116 253.47 252.938 253.806L251.93 253.414C252.108 253.087 252.322 252.807 252.574 252.574C252.826 252.331 253.12 252.149 253.456 252.028C253.792 251.897 254.175 251.832 254.604 251.832C255.258 251.832 255.794 251.963 256.214 252.224C256.644 252.476 256.966 252.854 257.18 253.358C257.395 253.853 257.498 254.469 257.488 255.206L257.474 259H256.438ZM254.338 259.168C253.517 259.168 252.873 258.981 252.406 258.608C251.949 258.225 251.72 257.698 251.72 257.026C251.72 256.317 251.954 255.775 252.42 255.402C252.896 255.019 253.559 254.828 254.408 254.828H256.41V255.766H254.66C254.007 255.766 253.54 255.873 253.26 256.088C252.99 256.303 252.854 256.611 252.854 257.012C252.854 257.376 252.99 257.665 253.26 257.88C253.531 258.085 253.909 258.188 254.394 258.188C254.796 258.188 255.146 258.104 255.444 257.936C255.743 257.759 255.972 257.511 256.13 257.194C256.298 256.867 256.382 256.485 256.382 256.046H256.858C256.858 256.998 256.644 257.759 256.214 258.328C255.785 258.888 255.16 259.168 254.338 259.168ZM260.355 256.746L259.641 255.976L263.365 252H264.779L260.355 256.746ZM259.263 259V249.2H260.383V259H259.263ZM263.673 259L261.013 254.982L261.741 254.198L265.059 259H263.673ZM268.974 259.168C268.292 259.168 267.69 259.014 267.168 258.706C266.645 258.389 266.234 257.955 265.936 257.404C265.646 256.853 265.502 256.219 265.502 255.5C265.502 254.781 265.646 254.147 265.936 253.596C266.234 253.045 266.64 252.616 267.154 252.308C267.676 251.991 268.274 251.832 268.946 251.832C269.599 251.832 270.164 251.995 270.64 252.322C271.116 252.639 271.484 253.087 271.746 253.666C272.007 254.245 272.138 254.926 272.138 255.71H266.356L266.636 255.472C266.636 256.032 266.734 256.513 266.93 256.914C267.135 257.315 267.42 257.623 267.784 257.838C268.148 258.043 268.563 258.146 269.03 258.146C269.524 258.146 269.94 258.029 270.276 257.796C270.621 257.563 270.887 257.255 271.074 256.872L272.04 257.362C271.862 257.726 271.624 258.043 271.326 258.314C271.036 258.585 270.691 258.795 270.29 258.944C269.898 259.093 269.459 259.168 268.974 259.168ZM266.706 254.996L266.412 254.772H271.242L270.948 255.01C270.948 254.562 270.859 254.175 270.682 253.848C270.504 253.521 270.266 253.269 269.968 253.092C269.669 252.915 269.324 252.826 268.932 252.826C268.549 252.826 268.185 252.915 267.84 253.092C267.504 253.269 267.228 253.521 267.014 253.848C266.808 254.165 266.706 254.548 266.706 254.996ZM277.862 259L277.806 257.852V255.304C277.806 254.753 277.746 254.301 277.624 253.946C277.503 253.582 277.312 253.307 277.05 253.12C276.789 252.933 276.448 252.84 276.028 252.84C275.646 252.84 275.314 252.919 275.034 253.078C274.764 253.227 274.54 253.47 274.362 253.806L273.354 253.414C273.532 253.087 273.746 252.807 273.998 252.574C274.25 252.331 274.544 252.149 274.88 252.028C275.216 251.897 275.599 251.832 276.028 251.832C276.682 251.832 277.218 251.963 277.638 252.224C278.068 252.476 278.39 252.854 278.604 253.358C278.819 253.853 278.922 254.469 278.912 255.206L278.898 259H277.862ZM275.762 259.168C274.941 259.168 274.297 258.981 273.83 258.608C273.373 258.225 273.144 257.698 273.144 257.026C273.144 256.317 273.378 255.775 273.844 255.402C274.32 255.019 274.983 254.828 275.832 254.828H277.834V255.766H276.084C275.431 255.766 274.964 255.873 274.684 256.088C274.414 256.303 274.278 256.611 274.278 257.012C274.278 257.376 274.414 257.665 274.684 257.88C274.955 258.085 275.333 258.188 275.818 258.188C276.22 258.188 276.57 258.104 276.868 257.936C277.167 257.759 277.396 257.511 277.554 257.194C277.722 256.867 277.806 256.485 277.806 256.046H278.282C278.282 256.998 278.068 257.759 277.638 258.328C277.209 258.888 276.584 259.168 275.762 259.168ZM286.934 259L289.3 252H290.434L288.054 259H286.934ZM282.174 259L284.54 252H285.59L283.252 259H282.174ZM282.118 259L279.738 252H280.872L283.21 259H282.118ZM286.934 259L284.596 252H285.66L287.998 259H286.934ZM295.704 259L295.648 257.852V255.304C295.648 254.753 295.587 254.301 295.466 253.946C295.345 253.582 295.153 253.307 294.892 253.12C294.631 252.933 294.29 252.84 293.87 252.84C293.487 252.84 293.156 252.919 292.876 253.078C292.605 253.227 292.381 253.47 292.204 253.806L291.196 253.414C291.373 253.087 291.588 252.807 291.84 252.574C292.092 252.331 292.386 252.149 292.722 252.028C293.058 251.897 293.441 251.832 293.87 251.832C294.523 251.832 295.06 251.963 295.48 252.224C295.909 252.476 296.231 252.854 296.446 253.358C296.661 253.853 296.763 254.469 296.754 255.206L296.74 259H295.704ZM293.604 259.168C292.783 259.168 292.139 258.981 291.672 258.608C291.215 258.225 290.986 257.698 290.986 257.026C290.986 256.317 291.219 255.775 291.686 255.402C292.162 255.019 292.825 254.828 293.674 254.828H295.676V255.766H293.926C293.273 255.766 292.806 255.873 292.526 256.088C292.255 256.303 292.12 256.611 292.12 257.012C292.12 257.376 292.255 257.665 292.526 257.88C292.797 258.085 293.175 258.188 293.66 258.188C294.061 258.188 294.411 258.104 294.71 257.936C295.009 257.759 295.237 257.511 295.396 257.194C295.564 256.867 295.648 256.485 295.648 256.046H296.124C296.124 256.998 295.909 257.759 295.48 258.328C295.051 258.888 294.425 259.168 293.604 259.168ZM299.049 261.968C298.872 261.968 298.667 261.931 298.433 261.856C298.2 261.791 297.953 261.702 297.691 261.59L298.111 260.652C298.326 260.745 298.513 260.815 298.671 260.862C298.839 260.909 298.97 260.932 299.063 260.932C299.315 260.932 299.521 260.862 299.679 260.722C299.847 260.591 299.987 260.4 300.099 260.148L300.897 258.244L303.487 252H304.691L301.331 259.98C301.154 260.391 300.967 260.745 300.771 261.044C300.585 261.343 300.356 261.571 300.085 261.73C299.815 261.889 299.469 261.968 299.049 261.968ZM300.589 259L297.565 252H298.755L301.359 258.23L301.695 259H300.589ZM309.318 261.8V252H310.368L310.438 253.288V261.8H309.318ZM312.804 259.168C312.216 259.168 311.698 259.014 311.25 258.706C310.811 258.398 310.47 257.969 310.228 257.418C309.985 256.858 309.864 256.219 309.864 255.5C309.864 254.772 309.985 254.133 310.228 253.582C310.47 253.031 310.811 252.602 311.25 252.294C311.698 251.986 312.216 251.832 312.804 251.832C313.429 251.832 313.98 251.986 314.456 252.294C314.932 252.602 315.3 253.031 315.562 253.582C315.832 254.133 315.968 254.772 315.968 255.5C315.968 256.219 315.832 256.858 315.562 257.418C315.3 257.969 314.932 258.398 314.456 258.706C313.98 259.014 313.429 259.168 312.804 259.168ZM312.552 258.146C312.99 258.146 313.378 258.034 313.714 257.81C314.059 257.586 314.33 257.273 314.526 256.872C314.731 256.471 314.834 256.013 314.834 255.5C314.834 254.987 314.736 254.529 314.54 254.128C314.353 253.727 314.087 253.414 313.742 253.19C313.396 252.966 313.004 252.854 312.566 252.854C312.155 252.854 311.786 252.966 311.46 253.19C311.142 253.414 310.89 253.727 310.704 254.128C310.526 254.529 310.438 254.987 310.438 255.5C310.438 256.013 310.526 256.471 310.704 256.872C310.89 257.273 311.142 257.586 311.46 257.81C311.777 258.034 312.141 258.146 312.552 258.146ZM320.613 259.168C319.932 259.168 319.325 259.014 318.793 258.706C318.27 258.389 317.86 257.955 317.561 257.404C317.262 256.853 317.113 256.219 317.113 255.5C317.113 254.781 317.258 254.147 317.547 253.596C317.846 253.045 318.256 252.616 318.779 252.308C319.311 251.991 319.913 251.832 320.585 251.832C321.276 251.832 321.882 251.991 322.405 252.308C322.937 252.616 323.348 253.045 323.637 253.596C323.936 254.147 324.085 254.781 324.085 255.5C324.085 256.219 323.936 256.853 323.637 257.404C323.348 257.955 322.942 258.389 322.419 258.706C321.896 259.014 321.294 259.168 320.613 259.168ZM320.613 258.132C321.08 258.132 321.486 258.02 321.831 257.796C322.176 257.572 322.447 257.264 322.643 256.872C322.848 256.48 322.951 256.023 322.951 255.5C322.951 254.977 322.848 254.52 322.643 254.128C322.447 253.736 322.172 253.428 321.817 253.204C321.462 252.98 321.052 252.868 320.585 252.868C320.128 252.868 319.722 252.98 319.367 253.204C319.022 253.428 318.746 253.736 318.541 254.128C318.345 254.52 318.247 254.977 318.247 255.5C318.247 256.013 318.345 256.471 318.541 256.872C318.746 257.264 319.026 257.572 319.381 257.796C319.745 258.02 320.156 258.132 320.613 258.132ZM325.71 259V252H326.83V259H325.71ZM326.284 250.376C326.097 250.376 325.934 250.306 325.794 250.166C325.654 250.026 325.584 249.863 325.584 249.676C325.584 249.48 325.654 249.317 325.794 249.186C325.934 249.046 326.097 248.976 326.284 248.976C326.48 248.976 326.643 249.046 326.774 249.186C326.914 249.317 326.984 249.48 326.984 249.676C326.984 249.863 326.914 250.026 326.774 250.166C326.643 250.306 326.48 250.376 326.284 250.376ZM328.894 259V252H329.944L330.014 253.288V259H328.894ZM333.808 259V255.416H334.928V259H333.808ZM333.808 255.416C333.808 254.725 333.729 254.198 333.57 253.834C333.411 253.47 333.192 253.223 332.912 253.092C332.632 252.952 332.315 252.882 331.96 252.882C331.344 252.882 330.863 253.101 330.518 253.54C330.182 253.969 330.014 254.581 330.014 255.374H329.468C329.468 254.637 329.575 254.002 329.79 253.47C330.005 252.938 330.317 252.532 330.728 252.252C331.139 251.972 331.633 251.832 332.212 251.832C332.763 251.832 333.239 251.944 333.64 252.168C334.051 252.383 334.368 252.728 334.592 253.204C334.825 253.68 334.937 254.305 334.928 255.08V255.416H333.808ZM339.333 259.168C338.651 259.168 338.124 258.991 337.751 258.636C337.377 258.281 337.191 257.782 337.191 257.138V249.816H338.311V257.026C338.311 257.381 338.404 257.656 338.591 257.852C338.787 258.039 339.057 258.132 339.403 258.132C339.515 258.132 339.622 258.118 339.725 258.09C339.837 258.053 339.981 257.969 340.159 257.838L340.593 258.748C340.35 258.907 340.131 259.014 339.935 259.07C339.739 259.135 339.538 259.168 339.333 259.168ZM335.973 252.994V252H340.411V252.994H335.973ZM344.442 259.168C343.928 259.168 343.48 259.093 343.098 258.944C342.715 258.785 342.393 258.58 342.132 258.328C341.88 258.076 341.698 257.801 341.586 257.502L342.566 257.096C342.724 257.413 342.962 257.67 343.28 257.866C343.597 258.062 343.947 258.16 344.33 258.16C344.768 258.16 345.137 258.076 345.436 257.908C345.734 257.731 345.884 257.483 345.884 257.166C345.884 256.877 345.772 256.643 345.548 256.466C345.333 256.289 345.011 256.144 344.582 256.032L343.91 255.85C343.275 255.682 342.78 255.43 342.426 255.094C342.071 254.749 341.894 254.361 341.894 253.932C341.894 253.269 342.108 252.756 342.538 252.392C342.976 252.019 343.625 251.832 344.484 251.832C344.894 251.832 345.268 251.893 345.604 252.014C345.94 252.135 346.229 252.308 346.472 252.532C346.714 252.747 346.892 253.003 347.004 253.302L346.024 253.736C345.902 253.419 345.702 253.19 345.422 253.05C345.142 252.91 344.801 252.84 344.4 252.84C343.97 252.84 343.634 252.933 343.392 253.12C343.149 253.297 343.028 253.549 343.028 253.876C343.028 254.063 343.126 254.24 343.322 254.408C343.527 254.567 343.826 254.697 344.218 254.8L344.918 254.982C345.375 255.094 345.758 255.262 346.066 255.486C346.374 255.701 346.607 255.948 346.766 256.228C346.924 256.508 347.004 256.807 347.004 257.124C347.004 257.544 346.892 257.908 346.668 258.216C346.444 258.524 346.14 258.762 345.758 258.93C345.375 259.089 344.936 259.168 344.442 259.168ZM355.066 259.168C354.385 259.168 353.778 259.014 353.246 258.706C352.724 258.389 352.313 257.955 352.014 257.404C351.716 256.853 351.566 256.219 351.566 255.5C351.566 254.781 351.711 254.147 352 253.596C352.299 253.045 352.71 252.616 353.232 252.308C353.764 251.991 354.366 251.832 355.038 251.832C355.729 251.832 356.336 251.991 356.858 252.308C357.39 252.616 357.801 253.045 358.09 253.596C358.389 254.147 358.538 254.781 358.538 255.5C358.538 256.219 358.389 256.853 358.09 257.404C357.801 257.955 357.395 258.389 356.872 258.706C356.35 259.014 355.748 259.168 355.066 259.168ZM355.066 258.132C355.533 258.132 355.939 258.02 356.284 257.796C356.63 257.572 356.9 257.264 357.096 256.872C357.302 256.48 357.404 256.023 357.404 255.5C357.404 254.977 357.302 254.52 357.096 254.128C356.9 253.736 356.625 253.428 356.27 253.204C355.916 252.98 355.505 252.868 355.038 252.868C354.581 252.868 354.175 252.98 353.82 253.204C353.475 253.428 353.2 253.736 352.994 254.128C352.798 254.52 352.7 254.977 352.7 255.5C352.7 256.013 352.798 256.471 352.994 256.872C353.2 257.264 353.48 257.572 353.834 257.796C354.198 258.02 354.609 258.132 355.066 258.132ZM360.709 255.206C360.709 254.45 360.854 253.839 361.143 253.372C361.433 252.896 361.801 252.546 362.249 252.322C362.707 252.089 363.187 251.972 363.691 251.972V253.022C363.281 253.022 362.884 253.092 362.501 253.232C362.128 253.363 361.82 253.582 361.577 253.89C361.335 254.198 361.213 254.618 361.213 255.15L360.709 255.206ZM360.093 259V252H361.213V259H360.093ZM371.349 259.168C370.667 259.168 370.065 259.014 369.543 258.706C369.02 258.389 368.609 257.955 368.311 257.404C368.021 256.853 367.877 256.219 367.877 255.5C367.877 254.781 368.021 254.147 368.311 253.596C368.609 253.045 369.015 252.616 369.529 252.308C370.051 251.991 370.649 251.832 371.321 251.832C371.974 251.832 372.539 251.995 373.015 252.322C373.491 252.639 373.859 253.087 374.121 253.666C374.382 254.245 374.513 254.926 374.513 255.71H368.731L369.011 255.472C369.011 256.032 369.109 256.513 369.305 256.914C369.51 257.315 369.795 257.623 370.159 257.838C370.523 258.043 370.938 258.146 371.405 258.146C371.899 258.146 372.315 258.029 372.651 257.796C372.996 257.563 373.262 257.255 373.449 256.872L374.415 257.362C374.237 257.726 373.999 258.043 373.701 258.314C373.411 258.585 373.066 258.795 372.665 258.944C372.273 259.093 371.834 259.168 371.349 259.168ZM369.081 254.996L368.787 254.772H373.617L373.323 255.01C373.323 254.562 373.234 254.175 373.057 253.848C372.879 253.521 372.641 253.269 372.343 253.092C372.044 252.915 371.699 252.826 371.307 252.826C370.924 252.826 370.56 252.915 370.215 253.092C369.879 253.269 369.603 253.521 369.389 253.848C369.183 254.165 369.081 254.548 369.081 254.996ZM377.89 259L380.746 252H381.922L378.996 259H377.89ZM377.82 259L374.894 252H376.056L378.912 259H377.82ZM385.923 259.168C385.242 259.168 384.64 259.014 384.117 258.706C383.594 258.389 383.184 257.955 382.885 257.404C382.596 256.853 382.451 256.219 382.451 255.5C382.451 254.781 382.596 254.147 382.885 253.596C383.184 253.045 383.59 252.616 384.103 252.308C384.626 251.991 385.223 251.832 385.895 251.832C386.548 251.832 387.113 251.995 387.589 252.322C388.065 252.639 388.434 253.087 388.695 253.666C388.956 254.245 389.087 254.926 389.087 255.71H383.305L383.585 255.472C383.585 256.032 383.683 256.513 383.879 256.914C384.084 257.315 384.369 257.623 384.733 257.838C385.097 258.043 385.512 258.146 385.979 258.146C386.474 258.146 386.889 258.029 387.225 257.796C387.57 257.563 387.836 257.255 388.023 256.872L388.989 257.362C388.812 257.726 388.574 258.043 388.275 258.314C387.986 258.585 387.64 258.795 387.239 258.944C386.847 259.093 386.408 259.168 385.923 259.168ZM383.655 254.996L383.361 254.772H388.191L387.897 255.01C387.897 254.562 387.808 254.175 387.631 253.848C387.454 253.521 387.216 253.269 386.917 253.092C386.618 252.915 386.273 252.826 385.881 252.826C385.498 252.826 385.134 252.915 384.789 253.092C384.453 253.269 384.178 253.521 383.963 253.848C383.758 254.165 383.655 254.548 383.655 254.996ZM390.5 259V252H391.55L391.62 253.288V259H390.5ZM395.414 259V255.416H396.534V259H395.414ZM395.414 255.416C395.414 254.725 395.334 254.198 395.176 253.834C395.017 253.47 394.798 253.223 394.518 253.092C394.238 252.952 393.92 252.882 393.566 252.882C392.95 252.882 392.469 253.101 392.124 253.54C391.788 253.969 391.62 254.581 391.62 255.374H391.074C391.074 254.637 391.181 254.002 391.396 253.47C391.61 252.938 391.923 252.532 392.334 252.252C392.744 251.972 393.239 251.832 393.818 251.832C394.368 251.832 394.844 251.944 395.246 252.168C395.656 252.383 395.974 252.728 396.198 253.204C396.431 253.68 396.543 254.305 396.534 255.08V255.416H395.414ZM406.077 259L406.021 257.852V255.304C406.021 254.753 405.96 254.301 405.839 253.946C405.718 253.582 405.526 253.307 405.265 253.12C405.004 252.933 404.663 252.84 404.243 252.84C403.86 252.84 403.529 252.919 403.249 253.078C402.978 253.227 402.754 253.47 402.577 253.806L401.569 253.414C401.746 253.087 401.961 252.807 402.213 252.574C402.465 252.331 402.759 252.149 403.095 252.028C403.431 251.897 403.814 251.832 404.243 251.832C404.896 251.832 405.433 251.963 405.853 252.224C406.282 252.476 406.604 252.854 406.819 253.358C407.034 253.853 407.136 254.469 407.127 255.206L407.113 259H406.077ZM403.977 259.168C403.156 259.168 402.512 258.981 402.045 258.608C401.588 258.225 401.359 257.698 401.359 257.026C401.359 256.317 401.592 255.775 402.059 255.402C402.535 255.019 403.198 254.828 404.047 254.828H406.049V255.766H404.299C403.646 255.766 403.179 255.873 402.899 256.088C402.628 256.303 402.493 256.611 402.493 257.012C402.493 257.376 402.628 257.665 402.899 257.88C403.17 258.085 403.548 258.188 404.033 258.188C404.434 258.188 404.784 258.104 405.083 257.936C405.382 257.759 405.61 257.511 405.769 257.194C405.937 256.867 406.021 256.485 406.021 256.046H406.497C406.497 256.998 406.282 257.759 405.853 258.328C405.424 258.888 404.798 259.168 403.977 259.168ZM414.503 259L417.359 252H418.535L415.609 259H414.503ZM414.433 259L411.507 252H412.669L415.525 259H414.433ZM422.536 259.168C421.855 259.168 421.253 259.014 420.73 258.706C420.208 258.389 419.797 257.955 419.498 257.404C419.209 256.853 419.064 256.219 419.064 255.5C419.064 254.781 419.209 254.147 419.498 253.596C419.797 253.045 420.203 252.616 420.716 252.308C421.239 251.991 421.836 251.832 422.508 251.832C423.162 251.832 423.726 251.995 424.202 252.322C424.678 252.639 425.047 253.087 425.308 253.666C425.57 254.245 425.7 254.926 425.7 255.71H419.918L420.198 255.472C420.198 256.032 420.296 256.513 420.492 256.914C420.698 257.315 420.982 257.623 421.346 257.838C421.71 258.043 422.126 258.146 422.592 258.146C423.087 258.146 423.502 258.029 423.838 257.796C424.184 257.563 424.45 257.255 424.636 256.872L425.602 257.362C425.425 257.726 425.187 258.043 424.888 258.314C424.599 258.585 424.254 258.795 423.852 258.944C423.46 259.093 423.022 259.168 422.536 259.168ZM420.268 254.996L419.974 254.772H424.804L424.51 255.01C424.51 254.562 424.422 254.175 424.244 253.848C424.067 253.521 423.829 253.269 423.53 253.092C423.232 252.915 422.886 252.826 422.494 252.826C422.112 252.826 421.748 252.915 421.402 253.092C421.066 253.269 420.791 253.521 420.576 253.848C420.371 254.165 420.268 254.548 420.268 254.996ZM427.729 255.206C427.729 254.45 427.873 253.839 428.163 253.372C428.452 252.896 428.821 252.546 429.269 252.322C429.726 252.089 430.207 251.972 430.711 251.972V253.022C430.3 253.022 429.903 253.092 429.521 253.232C429.147 253.363 428.839 253.582 428.597 253.89C428.354 254.198 428.233 254.618 428.233 255.15L427.729 255.206ZM427.113 259V252H428.233V259H427.113ZM432.319 259.196C432.105 259.196 431.918 259.121 431.759 258.972C431.61 258.813 431.535 258.631 431.535 258.426C431.535 258.211 431.61 258.029 431.759 257.88C431.918 257.721 432.105 257.642 432.319 257.642C432.534 257.642 432.716 257.721 432.865 257.88C433.015 258.029 433.089 258.211 433.089 258.426C433.089 258.631 433.015 258.813 432.865 258.972C432.716 259.121 432.534 259.196 432.319 259.196ZM435.161 259.196C434.947 259.196 434.76 259.121 434.601 258.972C434.452 258.813 434.377 258.631 434.377 258.426C434.377 258.211 434.452 258.029 434.601 257.88C434.76 257.721 434.947 257.642 435.161 257.642C435.376 257.642 435.558 257.721 435.707 257.88C435.857 258.029 435.931 258.211 435.931 258.426C435.931 258.631 435.857 258.813 435.707 258.972C435.558 259.121 435.376 259.196 435.161 259.196ZM437.989 259.196C437.775 259.196 437.588 259.121 437.429 258.972C437.28 258.813 437.205 258.631 437.205 258.426C437.205 258.211 437.28 258.029 437.429 257.88C437.588 257.721 437.775 257.642 437.989 257.642C438.204 257.642 438.386 257.721 438.535 257.88C438.685 258.029 438.759 258.211 438.759 258.426C438.759 258.631 438.685 258.813 438.535 258.972C438.386 259.121 438.204 259.196 437.989 259.196Z" fill="#D5D5D5"/>
<path d="M108 307C108 302.582 111.582 299 116 299H240C244.418 299 248 302.582 248 307V403C248 407.418 244.418 411 240 411H116C111.582 411 108 407.418 108 403V307Z" fill="#5B5B5B"/>
<path d="M138.5 342.639C138.5 341.252 138.5 340.559 138.558 339.975C139.116 334.342 143.572 329.886 149.204 329.328C149.788 329.271 150.519 329.271 151.98 329.271C152.544 329.271 152.825 329.271 153.064 329.256C156.117 329.071 158.79 327.144 159.931 324.307C160.02 324.085 160.104 323.834 160.271 323.333C160.438 322.832 160.521 322.581 160.611 322.359C161.751 319.522 164.425 317.595 167.477 317.41C167.716 317.396 167.981 317.396 168.509 317.396H187.658C188.186 317.396 188.45 317.396 188.689 317.41C191.742 317.595 194.415 319.522 195.556 322.359C195.645 322.581 195.729 322.832 195.896 323.333C196.063 323.834 196.146 324.085 196.236 324.307C197.376 327.144 200.05 329.071 203.102 329.256C203.341 329.271 203.623 329.271 204.186 329.271C205.648 329.271 206.379 329.271 206.963 329.328C212.595 329.886 217.051 334.342 217.609 339.975C217.667 340.559 217.667 341.252 217.667 342.639V373.604C217.667 380.255 217.667 383.58 216.372 386.12C215.234 388.355 213.417 390.171 211.183 391.309C208.642 392.604 205.317 392.604 198.667 392.604H157.5C150.849 392.604 147.524 392.604 144.984 391.309C142.749 390.171 140.933 388.355 139.794 386.12C138.5 383.58 138.5 380.255 138.5 373.604V342.639Z" stroke="#2E2E2E" stroke-width="6" stroke-linecap="round" stroke-linejoin="round"/>
<path d="M178 372.102C186.745 372.102 193.834 365.295 193.834 356.9C193.834 348.505 186.745 341.699 178 341.699C169.256 341.699 162.167 348.505 162.167 356.9C162.167 365.295 169.256 372.102 178 372.102Z" stroke="#2E2E2E" stroke-width="6" stroke-linecap="round" stroke-linejoin="round"/>
<path d="M259.648 321V311.496H256.208V309.8H264.944V311.496H261.504V321H259.648ZM266.26 321V313H268.036V321H266.26ZM267.156 311.48C266.868 311.48 266.618 311.379 266.404 311.176C266.202 310.963 266.1 310.712 266.1 310.424C266.1 310.136 266.202 309.891 266.404 309.688C266.618 309.485 266.868 309.384 267.156 309.384C267.444 309.384 267.69 309.485 267.892 309.688C268.106 309.891 268.212 310.136 268.212 310.424C268.212 310.712 268.106 310.963 267.892 311.176C267.69 311.379 267.444 311.48 267.156 311.48ZM273.332 321.192C272.49 321.192 271.844 320.984 271.396 320.568C270.959 320.141 270.74 319.533 270.74 318.744V310.504H272.516V318.408C272.516 318.781 272.602 319.064 272.772 319.256C272.954 319.448 273.215 319.544 273.556 319.544C273.663 319.544 273.78 319.523 273.908 319.48C274.036 319.437 274.18 319.357 274.34 319.24L274.996 320.6C274.719 320.792 274.442 320.936 274.164 321.032C273.887 321.139 273.61 321.192 273.332 321.192ZM269.412 314.536V313H274.676V314.536H269.412ZM276.43 321V309.8H278.222V321H276.43ZM283.779 321.192C283 321.192 282.307 321.016 281.699 320.664C281.101 320.301 280.627 319.805 280.275 319.176C279.933 318.547 279.763 317.821 279.763 317C279.763 316.179 279.939 315.453 280.291 314.824C280.643 314.195 281.123 313.704 281.731 313.352C282.349 312.989 283.053 312.808 283.843 312.808C284.557 312.808 285.203 312.995 285.779 313.368C286.355 313.731 286.808 314.259 287.139 314.952C287.48 315.645 287.651 316.472 287.651 317.432H281.363L281.603 317.208C281.603 317.699 281.709 318.125 281.923 318.488C282.136 318.84 282.419 319.112 282.771 319.304C283.123 319.496 283.512 319.592 283.939 319.592C284.429 319.592 284.835 319.485 285.155 319.272C285.475 319.048 285.725 318.76 285.907 318.408L287.491 319.08C287.267 319.507 286.979 319.88 286.627 320.2C286.285 320.52 285.875 320.765 285.395 320.936C284.925 321.107 284.387 321.192 283.779 321.192ZM281.715 316.28L281.459 316.056H285.971L285.731 316.28C285.731 315.843 285.635 315.485 285.443 315.208C285.251 314.92 285.005 314.707 284.707 314.568C284.419 314.419 284.115 314.344 283.795 314.344C283.475 314.344 283.155 314.419 282.835 314.568C282.515 314.707 282.248 314.92 282.035 315.208C281.821 315.485 281.715 315.843 281.715 316.28Z" fill="#FDFDFD"/>
<path d="M257.302 341V331.2H260.396C261.068 331.2 261.642 331.303 262.118 331.508C262.594 331.713 262.963 332.017 263.224 332.418C263.485 332.81 263.616 333.291 263.616 333.86C263.616 334.336 263.509 334.756 263.294 335.12C263.079 335.475 262.776 335.764 262.384 335.988C262.869 336.221 263.243 336.534 263.504 336.926C263.775 337.318 263.91 337.785 263.91 338.326C263.91 338.895 263.784 339.381 263.532 339.782C263.28 340.174 262.921 340.477 262.454 340.692C261.997 340.897 261.446 341 260.802 341H257.302ZM258.478 339.936H260.746C261.362 339.936 261.843 339.791 262.188 339.502C262.543 339.203 262.72 338.797 262.72 338.284C262.72 337.733 262.519 337.304 262.118 336.996C261.717 336.679 261.157 336.52 260.438 336.52H258.478V339.936ZM258.478 335.498H260.69C261.231 335.498 261.656 335.353 261.964 335.064C262.272 334.775 262.426 334.373 262.426 333.86C262.426 333.328 262.244 332.922 261.88 332.642C261.525 332.353 261.021 332.208 260.368 332.208H258.478V335.498ZM268.633 341.168C267.951 341.168 267.345 341.014 266.813 340.706C266.29 340.389 265.879 339.955 265.581 339.404C265.282 338.853 265.133 338.219 265.133 337.5C265.133 336.781 265.277 336.147 265.567 335.596C265.865 335.045 266.276 334.616 266.799 334.308C267.331 333.991 267.933 333.832 268.605 333.832C269.295 333.832 269.902 333.991 270.425 334.308C270.957 334.616 271.367 335.045 271.657 335.596C271.955 336.147 272.105 336.781 272.105 337.5C272.105 338.219 271.955 338.853 271.657 339.404C271.367 339.955 270.961 340.389 270.439 340.706C269.916 341.014 269.314 341.168 268.633 341.168ZM268.633 340.132C269.099 340.132 269.505 340.02 269.851 339.796C270.196 339.572 270.467 339.264 270.663 338.872C270.868 338.48 270.971 338.023 270.971 337.5C270.971 336.977 270.868 336.52 270.663 336.128C270.467 335.736 270.191 335.428 269.837 335.204C269.482 334.98 269.071 334.868 268.605 334.868C268.147 334.868 267.741 334.98 267.387 335.204C267.041 335.428 266.766 335.736 266.561 336.128C266.365 336.52 266.267 336.977 266.267 337.5C266.267 338.013 266.365 338.471 266.561 338.872C266.766 339.264 267.046 339.572 267.401 339.796C267.765 340.02 268.175 340.132 268.633 340.132ZM278.84 341L278.784 339.698V331.2H279.904V341H278.84ZM276.418 341.168C275.792 341.168 275.242 341.014 274.766 340.706C274.29 340.398 273.916 339.969 273.646 339.418C273.384 338.858 273.254 338.219 273.254 337.5C273.254 336.772 273.384 336.133 273.646 335.582C273.916 335.031 274.29 334.602 274.766 334.294C275.242 333.986 275.792 333.832 276.418 333.832C277.006 333.832 277.519 333.986 277.958 334.294C278.406 334.602 278.751 335.031 278.994 335.582C279.236 336.133 279.358 336.772 279.358 337.5C279.358 338.219 279.236 338.858 278.994 339.418C278.751 339.969 278.406 340.398 277.958 340.706C277.519 341.014 277.006 341.168 276.418 341.168ZM276.67 340.146C277.08 340.146 277.444 340.034 277.762 339.81C278.079 339.586 278.326 339.273 278.504 338.872C278.69 338.471 278.784 338.013 278.784 337.5C278.784 336.987 278.69 336.529 278.504 336.128C278.326 335.727 278.079 335.414 277.762 335.19C277.444 334.966 277.076 334.854 276.656 334.854C276.217 334.854 275.825 334.966 275.48 335.19C275.144 335.414 274.878 335.727 274.682 336.128C274.486 336.529 274.388 336.987 274.388 337.5C274.388 338.013 274.486 338.471 274.682 338.872C274.878 339.273 275.148 339.586 275.494 339.81C275.839 340.034 276.231 340.146 276.67 340.146ZM282.493 343.968C282.315 343.968 282.11 343.931 281.877 343.856C281.643 343.791 281.396 343.702 281.135 343.59L281.555 342.652C281.769 342.745 281.956 342.815 282.115 342.862C282.283 342.909 282.413 342.932 282.507 342.932C282.759 342.932 282.964 342.862 283.123 342.722C283.291 342.591 283.431 342.4 283.543 342.148L284.341 340.244L286.931 334H288.135L284.775 341.98C284.597 342.391 284.411 342.745 284.215 343.044C284.028 343.343 283.799 343.571 283.529 343.73C283.258 343.889 282.913 343.968 282.493 343.968ZM284.033 341L281.009 334H282.199L284.803 340.23L285.139 341H284.033ZM295.323 341.168C294.642 341.168 294.114 340.991 293.741 340.636C293.368 340.281 293.181 339.782 293.181 339.138V331.816H294.301V339.026C294.301 339.381 294.394 339.656 294.581 339.852C294.777 340.039 295.048 340.132 295.393 340.132C295.505 340.132 295.612 340.118 295.715 340.09C295.827 340.053 295.972 339.969 296.149 339.838L296.583 340.748C296.34 340.907 296.121 341.014 295.925 341.07C295.729 341.135 295.528 341.168 295.323 341.168ZM291.963 334.994V334H296.401V334.994H291.963ZM301.007 341.168C300.326 341.168 299.724 341.014 299.201 340.706C298.678 340.389 298.268 339.955 297.969 339.404C297.68 338.853 297.535 338.219 297.535 337.5C297.535 336.781 297.68 336.147 297.969 335.596C298.268 335.045 298.674 334.616 299.187 334.308C299.71 333.991 300.307 333.832 300.979 333.832C301.632 333.832 302.197 333.995 302.673 334.322C303.149 334.639 303.518 335.087 303.779 335.666C304.04 336.245 304.171 336.926 304.171 337.71H298.389L298.669 337.472C298.669 338.032 298.767 338.513 298.963 338.914C299.168 339.315 299.453 339.623 299.817 339.838C300.181 340.043 300.596 340.146 301.063 340.146C301.558 340.146 301.973 340.029 302.309 339.796C302.654 339.563 302.92 339.255 303.107 338.872L304.073 339.362C303.896 339.726 303.658 340.043 303.359 340.314C303.07 340.585 302.724 340.795 302.323 340.944C301.931 341.093 301.492 341.168 301.007 341.168ZM298.739 336.996L298.445 336.772H303.275L302.981 337.01C302.981 336.562 302.892 336.175 302.715 335.848C302.538 335.521 302.3 335.269 302.001 335.092C301.702 334.915 301.357 334.826 300.965 334.826C300.582 334.826 300.218 334.915 299.873 335.092C299.537 335.269 299.262 335.521 299.047 335.848C298.842 336.165 298.739 336.548 298.739 336.996ZM304.675 341L307.531 336.982L309.547 334H310.877L308.217 337.78L306.033 341H304.675ZM309.701 341L307.545 337.78L304.857 334H306.187L308.217 336.982L311.045 341H309.701ZM314.792 341.168C314.11 341.168 313.583 340.991 313.21 340.636C312.836 340.281 312.65 339.782 312.65 339.138V331.816H313.77V339.026C313.77 339.381 313.863 339.656 314.05 339.852C314.246 340.039 314.516 340.132 314.862 340.132C314.974 340.132 315.081 340.118 315.184 340.09C315.296 340.053 315.44 339.969 315.618 339.838L316.052 340.748C315.809 340.907 315.59 341.014 315.394 341.07C315.198 341.135 314.997 341.168 314.792 341.168ZM311.432 334.994V334H315.87V334.994H311.432ZM317.031 342.61L317.829 339.656H319.089L317.997 342.61H317.031ZM331.18 341L327.246 331.2H328.436L332.426 341H331.18ZM323.214 341L327.204 331.2H328.408L324.474 341H323.214ZM325.104 338.214V337.15H330.55V338.214H325.104ZM338.627 341L338.571 339.698V331.2H339.691V341H338.627ZM336.205 341.168C335.579 341.168 335.029 341.014 334.553 340.706C334.077 340.398 333.703 339.969 333.433 339.418C333.171 338.858 333.041 338.219 333.041 337.5C333.041 336.772 333.171 336.133 333.433 335.582C333.703 335.031 334.077 334.602 334.553 334.294C335.029 333.986 335.579 333.832 336.205 333.832C336.793 333.832 337.306 333.986 337.745 334.294C338.193 334.602 338.538 335.031 338.781 335.582C339.023 336.133 339.145 336.772 339.145 337.5C339.145 338.219 339.023 338.858 338.781 339.418C338.538 339.969 338.193 340.398 337.745 340.706C337.306 341.014 336.793 341.168 336.205 341.168ZM336.457 340.146C336.867 340.146 337.231 340.034 337.549 339.81C337.866 339.586 338.113 339.273 338.291 338.872C338.477 338.471 338.571 338.013 338.571 337.5C338.571 336.987 338.477 336.529 338.291 336.128C338.113 335.727 337.866 335.414 337.549 335.19C337.231 334.966 336.863 334.854 336.443 334.854C336.004 334.854 335.612 334.966 335.267 335.19C334.931 335.414 334.665 335.727 334.469 336.128C334.273 336.529 334.175 336.987 334.175 337.5C334.175 338.013 334.273 338.471 334.469 338.872C334.665 339.273 334.935 339.586 335.281 339.81C335.626 340.034 336.018 340.146 336.457 340.146ZM346.83 341L346.774 339.698V331.2H347.894V341H346.83ZM344.408 341.168C343.783 341.168 343.232 341.014 342.756 340.706C342.28 340.398 341.907 339.969 341.636 339.418C341.375 338.858 341.244 338.219 341.244 337.5C341.244 336.772 341.375 336.133 341.636 335.582C341.907 335.031 342.28 334.602 342.756 334.294C343.232 333.986 343.783 333.832 344.408 333.832C344.996 333.832 345.509 333.986 345.948 334.294C346.396 334.602 346.741 335.031 346.984 335.582C347.227 336.133 347.348 336.772 347.348 337.5C347.348 338.219 347.227 338.858 346.984 339.418C346.741 339.969 346.396 340.398 345.948 340.706C345.509 341.014 344.996 341.168 344.408 341.168ZM344.66 340.146C345.071 340.146 345.435 340.034 345.752 339.81C346.069 339.586 346.317 339.273 346.494 338.872C346.681 338.471 346.774 338.013 346.774 337.5C346.774 336.987 346.681 336.529 346.494 336.128C346.317 335.727 346.069 335.414 345.752 335.19C345.435 334.966 345.066 334.854 344.646 334.854C344.207 334.854 343.815 334.966 343.47 335.19C343.134 335.414 342.868 335.727 342.672 336.128C342.476 336.529 342.378 336.987 342.378 337.5C342.378 338.013 342.476 338.471 342.672 338.872C342.868 339.273 343.139 339.586 343.484 339.81C343.829 340.034 344.221 340.146 344.66 340.146ZM353.312 341V334H354.362L354.418 334.98C354.633 334.607 354.908 334.322 355.244 334.126C355.58 333.93 355.972 333.832 356.42 333.832C356.98 333.832 357.456 333.963 357.848 334.224C358.249 334.485 358.539 334.882 358.716 335.414C358.912 334.901 359.197 334.509 359.57 334.238C359.953 333.967 360.405 333.832 360.928 333.832C361.712 333.832 362.328 334.093 362.776 334.616C363.233 335.139 363.457 335.932 363.448 336.996V341H362.328V337.416C362.328 336.725 362.253 336.198 362.104 335.834C361.964 335.47 361.773 335.223 361.53 335.092C361.287 334.952 361.007 334.882 360.69 334.882C360.139 334.882 359.71 335.101 359.402 335.54C359.094 335.969 358.94 336.581 358.94 337.374V341H357.82V337.416C357.82 336.725 357.745 336.198 357.596 335.834C357.456 335.47 357.26 335.223 357.008 335.092C356.765 334.952 356.485 334.882 356.168 334.882C355.627 334.882 355.202 335.101 354.894 335.54C354.586 335.969 354.432 336.581 354.432 337.374V341H353.312ZM369.532 341L369.476 339.852V337.304C369.476 336.753 369.416 336.301 369.294 335.946C369.173 335.582 368.982 335.307 368.72 335.12C368.459 334.933 368.118 334.84 367.698 334.84C367.316 334.84 366.984 334.919 366.704 335.078C366.434 335.227 366.21 335.47 366.032 335.806L365.024 335.414C365.202 335.087 365.416 334.807 365.668 334.574C365.92 334.331 366.214 334.149 366.55 334.028C366.886 333.897 367.269 333.832 367.698 333.832C368.352 333.832 368.888 333.963 369.308 334.224C369.738 334.476 370.06 334.854 370.274 335.358C370.489 335.853 370.592 336.469 370.582 337.206L370.568 341H369.532ZM367.432 341.168C366.611 341.168 365.967 340.981 365.5 340.608C365.043 340.225 364.814 339.698 364.814 339.026C364.814 338.317 365.048 337.775 365.514 337.402C365.99 337.019 366.653 336.828 367.502 336.828H369.504V337.766H367.754C367.101 337.766 366.634 337.873 366.354 338.088C366.084 338.303 365.948 338.611 365.948 339.012C365.948 339.376 366.084 339.665 366.354 339.88C366.625 340.085 367.003 340.188 367.488 340.188C367.89 340.188 368.24 340.104 368.538 339.936C368.837 339.759 369.066 339.511 369.224 339.194C369.392 338.867 369.476 338.485 369.476 338.046H369.952C369.952 338.998 369.738 339.759 369.308 340.328C368.879 340.888 368.254 341.168 367.432 341.168ZM372.427 341V334H373.547V341H372.427ZM373.001 332.376C372.814 332.376 372.651 332.306 372.511 332.166C372.371 332.026 372.301 331.863 372.301 331.676C372.301 331.48 372.371 331.317 372.511 331.186C372.651 331.046 372.814 330.976 373.001 330.976C373.197 330.976 373.36 331.046 373.491 331.186C373.631 331.317 373.701 331.48 373.701 331.676C373.701 331.863 373.631 332.026 373.491 332.166C373.36 332.306 373.197 332.376 373.001 332.376ZM375.611 341V334H376.661L376.731 335.288V341H375.611ZM380.525 341V337.416H381.645V341H380.525ZM380.525 337.416C380.525 336.725 380.446 336.198 380.287 335.834C380.128 335.47 379.909 335.223 379.629 335.092C379.349 334.952 379.032 334.882 378.677 334.882C378.061 334.882 377.58 335.101 377.235 335.54C376.899 335.969 376.731 336.581 376.731 337.374H376.185C376.185 336.637 376.292 336.002 376.507 335.47C376.722 334.938 377.034 334.532 377.445 334.252C377.856 333.972 378.35 333.832 378.929 333.832C379.48 333.832 379.956 333.944 380.357 334.168C380.768 334.383 381.085 334.728 381.309 335.204C381.542 335.68 381.654 336.305 381.645 337.08V337.416H380.525ZM259.612 355.168C258.931 355.168 258.403 354.991 258.03 354.636C257.657 354.281 257.47 353.782 257.47 353.138V345.816H258.59V353.026C258.59 353.381 258.683 353.656 258.87 353.852C259.066 354.039 259.337 354.132 259.682 354.132C259.794 354.132 259.901 354.118 260.004 354.09C260.116 354.053 260.261 353.969 260.438 353.838L260.872 354.748C260.629 354.907 260.41 355.014 260.214 355.07C260.018 355.135 259.817 355.168 259.612 355.168ZM256.252 348.994V348H260.69V348.994H256.252ZM266.542 355L266.486 353.852V351.304C266.486 350.753 266.425 350.301 266.304 349.946C266.183 349.582 265.991 349.307 265.73 349.12C265.469 348.933 265.128 348.84 264.708 348.84C264.325 348.84 263.994 348.919 263.714 349.078C263.443 349.227 263.219 349.47 263.042 349.806L262.034 349.414C262.211 349.087 262.426 348.807 262.678 348.574C262.93 348.331 263.224 348.149 263.56 348.028C263.896 347.897 264.279 347.832 264.708 347.832C265.361 347.832 265.898 347.963 266.318 348.224C266.747 348.476 267.069 348.854 267.284 349.358C267.499 349.853 267.601 350.469 267.592 351.206L267.578 355H266.542ZM264.442 355.168C263.621 355.168 262.977 354.981 262.51 354.608C262.053 354.225 261.824 353.698 261.824 353.026C261.824 352.317 262.057 351.775 262.524 351.402C263 351.019 263.663 350.828 264.512 350.828H266.514V351.766H264.764C264.111 351.766 263.644 351.873 263.364 352.088C263.093 352.303 262.958 352.611 262.958 353.012C262.958 353.376 263.093 353.665 263.364 353.88C263.635 354.085 264.013 354.188 264.498 354.188C264.899 354.188 265.249 354.104 265.548 353.936C265.847 353.759 266.075 353.511 266.234 353.194C266.402 352.867 266.486 352.485 266.486 352.046H266.962C266.962 352.998 266.747 353.759 266.318 354.328C265.889 354.888 265.263 355.168 264.442 355.168ZM270.459 352.746L269.745 351.976L273.469 348H274.883L270.459 352.746ZM269.367 355V345.2H270.487V355H269.367ZM273.777 355L271.117 350.982L271.845 350.198L275.163 355H273.777ZM279.077 355.168C278.396 355.168 277.794 355.014 277.271 354.706C276.749 354.389 276.338 353.955 276.039 353.404C275.75 352.853 275.605 352.219 275.605 351.5C275.605 350.781 275.75 350.147 276.039 349.596C276.338 349.045 276.744 348.616 277.257 348.308C277.78 347.991 278.377 347.832 279.049 347.832C279.703 347.832 280.267 347.995 280.743 348.322C281.219 348.639 281.588 349.087 281.849 349.666C282.111 350.245 282.241 350.926 282.241 351.71H276.459L276.739 351.472C276.739 352.032 276.837 352.513 277.033 352.914C277.239 353.315 277.523 353.623 277.887 353.838C278.251 354.043 278.667 354.146 279.133 354.146C279.628 354.146 280.043 354.029 280.379 353.796C280.725 353.563 280.991 353.255 281.177 352.872L282.143 353.362C281.966 353.726 281.728 354.043 281.429 354.314C281.14 354.585 280.795 354.795 280.393 354.944C280.001 355.093 279.563 355.168 279.077 355.168ZM276.809 350.996L276.515 350.772H281.345L281.051 351.01C281.051 350.562 280.963 350.175 280.785 349.848C280.608 349.521 280.37 349.269 280.071 349.092C279.773 348.915 279.427 348.826 279.035 348.826C278.653 348.826 278.289 348.915 277.943 349.092C277.607 349.269 277.332 349.521 277.117 349.848C276.912 350.165 276.809 350.548 276.809 350.996ZM287.966 355L287.91 353.852V351.304C287.91 350.753 287.849 350.301 287.728 349.946C287.606 349.582 287.415 349.307 287.154 349.12C286.892 348.933 286.552 348.84 286.132 348.84C285.749 348.84 285.418 348.919 285.138 349.078C284.867 349.227 284.643 349.47 284.466 349.806L283.458 349.414C283.635 349.087 283.85 348.807 284.102 348.574C284.354 348.331 284.648 348.149 284.984 348.028C285.32 347.897 285.702 347.832 286.132 347.832C286.785 347.832 287.322 347.963 287.742 348.224C288.171 348.476 288.493 348.854 288.708 349.358C288.922 349.853 289.025 350.469 289.016 351.206L289.002 355H287.966ZM285.866 355.168C285.044 355.168 284.4 354.981 283.934 354.608C283.476 354.225 283.248 353.698 283.248 353.026C283.248 352.317 283.481 351.775 283.948 351.402C284.424 351.019 285.086 350.828 285.936 350.828H287.938V351.766H286.188C285.534 351.766 285.068 351.873 284.788 352.088C284.517 352.303 284.382 352.611 284.382 353.012C284.382 353.376 284.517 353.665 284.788 353.88C285.058 354.085 285.436 354.188 285.922 354.188C286.323 354.188 286.673 354.104 286.972 353.936C287.27 353.759 287.499 353.511 287.658 353.194C287.826 352.867 287.91 352.485 287.91 352.046H288.386C288.386 352.998 288.171 353.759 287.742 354.328C287.312 354.888 286.687 355.168 285.866 355.168ZM297.037 355L299.403 348H300.537L298.157 355H297.037ZM292.277 355L294.643 348H295.693L293.355 355H292.277ZM292.221 355L289.841 348H290.975L293.313 355H292.221ZM297.037 355L294.699 348H295.763L298.101 355H297.037ZM305.808 355L305.752 353.852V351.304C305.752 350.753 305.691 350.301 305.57 349.946C305.448 349.582 305.257 349.307 304.996 349.12C304.734 348.933 304.394 348.84 303.974 348.84C303.591 348.84 303.26 348.919 302.98 349.078C302.709 349.227 302.485 349.47 302.308 349.806L301.3 349.414C301.477 349.087 301.692 348.807 301.944 348.574C302.196 348.331 302.49 348.149 302.826 348.028C303.162 347.897 303.544 347.832 303.974 347.832C304.627 347.832 305.164 347.963 305.584 348.224C306.013 348.476 306.335 348.854 306.55 349.358C306.764 349.853 306.867 350.469 306.858 351.206L306.844 355H305.808ZM303.708 355.168C302.886 355.168 302.242 354.981 301.776 354.608C301.318 354.225 301.09 353.698 301.09 353.026C301.09 352.317 301.323 351.775 301.79 351.402C302.266 351.019 302.928 350.828 303.778 350.828H305.78V351.766H304.03C303.376 351.766 302.91 351.873 302.63 352.088C302.359 352.303 302.224 352.611 302.224 353.012C302.224 353.376 302.359 353.665 302.63 353.88C302.9 354.085 303.278 354.188 303.764 354.188C304.165 354.188 304.515 354.104 304.814 353.936C305.112 353.759 305.341 353.511 305.5 353.194C305.668 352.867 305.752 352.485 305.752 352.046H306.228C306.228 352.998 306.013 353.759 305.584 354.328C305.154 354.888 304.529 355.168 303.708 355.168ZM309.153 357.968C308.976 357.968 308.77 357.931 308.537 357.856C308.304 357.791 308.056 357.702 307.795 357.59L308.215 356.652C308.43 356.745 308.616 356.815 308.775 356.862C308.943 356.909 309.074 356.932 309.167 356.932C309.419 356.932 309.624 356.862 309.783 356.722C309.951 356.591 310.091 356.4 310.203 356.148L311.001 354.244L313.591 348H314.795L311.435 355.98C311.258 356.391 311.071 356.745 310.875 357.044C310.688 357.343 310.46 357.571 310.189 357.73C309.918 357.889 309.573 357.968 309.153 357.968ZM310.693 355L307.669 348H308.859L311.463 354.23L311.799 355H310.693ZM319.421 357.8V348H320.471L320.541 349.288V357.8H319.421ZM322.907 355.168C322.319 355.168 321.801 355.014 321.353 354.706C320.914 354.398 320.574 353.969 320.331 353.418C320.088 352.858 319.967 352.219 319.967 351.5C319.967 350.772 320.088 350.133 320.331 349.582C320.574 349.031 320.914 348.602 321.353 348.294C321.801 347.986 322.319 347.832 322.907 347.832C323.532 347.832 324.083 347.986 324.559 348.294C325.035 348.602 325.404 349.031 325.665 349.582C325.936 350.133 326.071 350.772 326.071 351.5C326.071 352.219 325.936 352.858 325.665 353.418C325.404 353.969 325.035 354.398 324.559 354.706C324.083 355.014 323.532 355.168 322.907 355.168ZM322.655 354.146C323.094 354.146 323.481 354.034 323.817 353.81C324.162 353.586 324.433 353.273 324.629 352.872C324.834 352.471 324.937 352.013 324.937 351.5C324.937 350.987 324.839 350.529 324.643 350.128C324.456 349.727 324.19 349.414 323.845 349.19C323.5 348.966 323.108 348.854 322.669 348.854C322.258 348.854 321.89 348.966 321.563 349.19C321.246 349.414 320.994 349.727 320.807 350.128C320.63 350.529 320.541 350.987 320.541 351.5C320.541 352.013 320.63 352.471 320.807 352.872C320.994 353.273 321.246 353.586 321.563 353.81C321.88 354.034 322.244 354.146 322.655 354.146ZM330.717 355.168C330.035 355.168 329.429 355.014 328.897 354.706C328.374 354.389 327.963 353.955 327.665 353.404C327.366 352.853 327.217 352.219 327.217 351.5C327.217 350.781 327.361 350.147 327.651 349.596C327.949 349.045 328.36 348.616 328.883 348.308C329.415 347.991 330.017 347.832 330.689 347.832C331.379 347.832 331.986 347.991 332.509 348.308C333.041 348.616 333.451 349.045 333.741 349.596C334.039 350.147 334.189 350.781 334.189 351.5C334.189 352.219 334.039 352.853 333.741 353.404C333.451 353.955 333.045 354.389 332.523 354.706C332 355.014 331.398 355.168 330.717 355.168ZM330.717 354.132C331.183 354.132 331.589 354.02 331.935 353.796C332.28 353.572 332.551 353.264 332.747 352.872C332.952 352.48 333.055 352.023 333.055 351.5C333.055 350.977 332.952 350.52 332.747 350.128C332.551 349.736 332.275 349.428 331.921 349.204C331.566 348.98 331.155 348.868 330.689 348.868C330.231 348.868 329.825 348.98 329.471 349.204C329.125 349.428 328.85 349.736 328.645 350.128C328.449 350.52 328.351 350.977 328.351 351.5C328.351 352.013 328.449 352.471 328.645 352.872C328.85 353.264 329.13 353.572 329.485 353.796C329.849 354.02 330.259 354.132 330.717 354.132ZM335.814 355V348H336.934V355H335.814ZM336.388 346.376C336.201 346.376 336.038 346.306 335.898 346.166C335.758 346.026 335.688 345.863 335.688 345.676C335.688 345.48 335.758 345.317 335.898 345.186C336.038 345.046 336.201 344.976 336.388 344.976C336.584 344.976 336.747 345.046 336.878 345.186C337.018 345.317 337.088 345.48 337.088 345.676C337.088 345.863 337.018 346.026 336.878 346.166C336.747 346.306 336.584 346.376 336.388 346.376ZM338.998 355V348H340.048L340.118 349.288V355H338.998ZM343.912 355V351.416H345.032V355H343.912ZM343.912 351.416C343.912 350.725 343.832 350.198 343.674 349.834C343.515 349.47 343.296 349.223 343.016 349.092C342.736 348.952 342.418 348.882 342.064 348.882C341.448 348.882 340.967 349.101 340.622 349.54C340.286 349.969 340.118 350.581 340.118 351.374H339.572C339.572 350.637 339.679 350.002 339.894 349.47C340.108 348.938 340.421 348.532 340.832 348.252C341.242 347.972 341.737 347.832 342.316 347.832C342.866 347.832 343.342 347.944 343.744 348.168C344.154 348.383 344.472 348.728 344.696 349.204C344.929 349.68 345.041 350.305 345.032 351.08V351.416H343.912ZM349.436 355.168C348.755 355.168 348.228 354.991 347.854 354.636C347.481 354.281 347.294 353.782 347.294 353.138V345.816H348.414V353.026C348.414 353.381 348.508 353.656 348.694 353.852C348.89 354.039 349.161 354.132 349.506 354.132C349.618 354.132 349.726 354.118 349.828 354.09C349.94 354.053 350.085 353.969 350.262 353.838L350.696 354.748C350.454 354.907 350.234 355.014 350.038 355.07C349.842 355.135 349.642 355.168 349.436 355.168ZM346.076 348.994V348H350.514V348.994H346.076ZM354.545 355.168C354.032 355.168 353.584 355.093 353.201 354.944C352.819 354.785 352.497 354.58 352.235 354.328C351.983 354.076 351.801 353.801 351.689 353.502L352.669 353.096C352.828 353.413 353.066 353.67 353.383 353.866C353.701 354.062 354.051 354.16 354.433 354.16C354.872 354.16 355.241 354.076 355.539 353.908C355.838 353.731 355.987 353.483 355.987 353.166C355.987 352.877 355.875 352.643 355.651 352.466C355.437 352.289 355.115 352.144 354.685 352.032L354.013 351.85C353.379 351.682 352.884 351.43 352.529 351.094C352.175 350.749 351.997 350.361 351.997 349.932C351.997 349.269 352.212 348.756 352.641 348.392C353.08 348.019 353.729 347.832 354.587 347.832C354.998 347.832 355.371 347.893 355.707 348.014C356.043 348.135 356.333 348.308 356.575 348.532C356.818 348.747 356.995 349.003 357.107 349.302L356.127 349.736C356.006 349.419 355.805 349.19 355.525 349.05C355.245 348.91 354.905 348.84 354.503 348.84C354.074 348.84 353.738 348.933 353.495 349.12C353.253 349.297 353.131 349.549 353.131 349.876C353.131 350.063 353.229 350.24 353.425 350.408C353.631 350.567 353.929 350.697 354.321 350.8L355.021 350.982C355.479 351.094 355.861 351.262 356.169 351.486C356.477 351.701 356.711 351.948 356.869 352.228C357.028 352.508 357.107 352.807 357.107 353.124C357.107 353.544 356.995 353.908 356.771 354.216C356.547 354.524 356.244 354.762 355.861 354.93C355.479 355.089 355.04 355.168 354.545 355.168ZM365.17 355.168C364.488 355.168 363.882 355.014 363.35 354.706C362.827 354.389 362.416 353.955 362.118 353.404C361.819 352.853 361.67 352.219 361.67 351.5C361.67 350.781 361.814 350.147 362.104 349.596C362.402 349.045 362.813 348.616 363.336 348.308C363.868 347.991 364.47 347.832 365.142 347.832C365.832 347.832 366.439 347.991 366.962 348.308C367.494 348.616 367.904 349.045 368.194 349.596C368.492 350.147 368.642 350.781 368.642 351.5C368.642 352.219 368.492 352.853 368.194 353.404C367.904 353.955 367.498 354.389 366.976 354.706C366.453 355.014 365.851 355.168 365.17 355.168ZM365.17 354.132C365.636 354.132 366.042 354.02 366.388 353.796C366.733 353.572 367.004 353.264 367.2 352.872C367.405 352.48 367.508 352.023 367.508 351.5C367.508 350.977 367.405 350.52 367.2 350.128C367.004 349.736 366.728 349.428 366.374 349.204C366.019 348.98 365.608 348.868 365.142 348.868C364.684 348.868 364.278 348.98 363.924 349.204C363.578 349.428 363.303 349.736 363.098 350.128C362.902 350.52 362.804 350.977 362.804 351.5C362.804 352.013 362.902 352.471 363.098 352.872C363.303 353.264 363.583 353.572 363.938 353.796C364.302 354.02 364.712 354.132 365.17 354.132ZM370.813 351.206C370.813 350.45 370.957 349.839 371.247 349.372C371.536 348.896 371.905 348.546 372.353 348.322C372.81 348.089 373.291 347.972 373.795 347.972V349.022C373.384 349.022 372.987 349.092 372.605 349.232C372.231 349.363 371.923 349.582 371.681 349.89C371.438 350.198 371.317 350.618 371.317 351.15L370.813 351.206ZM370.197 355V348H371.317V355H370.197ZM381.452 355.168C380.771 355.168 380.169 355.014 379.646 354.706C379.124 354.389 378.713 353.955 378.414 353.404C378.125 352.853 377.98 352.219 377.98 351.5C377.98 350.781 378.125 350.147 378.414 349.596C378.713 349.045 379.119 348.616 379.632 348.308C380.155 347.991 380.752 347.832 381.424 347.832C382.078 347.832 382.642 347.995 383.118 348.322C383.594 348.639 383.963 349.087 384.224 349.666C384.486 350.245 384.616 350.926 384.616 351.71H378.834L379.114 351.472C379.114 352.032 379.212 352.513 379.408 352.914C379.614 353.315 379.898 353.623 380.262 353.838C380.626 354.043 381.042 354.146 381.508 354.146C382.003 354.146 382.418 354.029 382.754 353.796C383.1 353.563 383.366 353.255 383.552 352.872L384.518 353.362C384.341 353.726 384.103 354.043 383.804 354.314C383.515 354.585 383.17 354.795 382.768 354.944C382.376 355.093 381.938 355.168 381.452 355.168ZM379.184 350.996L378.89 350.772H383.72L383.426 351.01C383.426 350.562 383.338 350.175 383.16 349.848C382.983 349.521 382.745 349.269 382.446 349.092C382.148 348.915 381.802 348.826 381.41 348.826C381.028 348.826 380.664 348.915 380.318 349.092C379.982 349.269 379.707 349.521 379.492 349.848C379.287 350.165 379.184 350.548 379.184 350.996ZM387.993 355L390.849 348H392.025L389.099 355H387.993ZM387.923 355L384.997 348H386.159L389.015 355H387.923ZM396.026 355.168C395.345 355.168 394.743 355.014 394.22 354.706C393.698 354.389 393.287 353.955 392.988 353.404C392.699 352.853 392.554 352.219 392.554 351.5C392.554 350.781 392.699 350.147 392.988 349.596C393.287 349.045 393.693 348.616 394.206 348.308C394.729 347.991 395.326 347.832 395.998 347.832C396.652 347.832 397.216 347.995 397.692 348.322C398.168 348.639 398.537 349.087 398.798 349.666C399.06 350.245 399.19 350.926 399.19 351.71H393.408L393.688 351.472C393.688 352.032 393.786 352.513 393.982 352.914C394.188 353.315 394.472 353.623 394.836 353.838C395.2 354.043 395.616 354.146 396.082 354.146C396.577 354.146 396.992 354.029 397.328 353.796C397.674 353.563 397.94 353.255 398.126 352.872L399.092 353.362C398.915 353.726 398.677 354.043 398.378 354.314C398.089 354.585 397.744 354.795 397.342 354.944C396.95 355.093 396.512 355.168 396.026 355.168ZM393.758 350.996L393.464 350.772H398.294L398 351.01C398 350.562 397.912 350.175 397.734 349.848C397.557 349.521 397.319 349.269 397.02 349.092C396.722 348.915 396.376 348.826 395.984 348.826C395.602 348.826 395.238 348.915 394.892 349.092C394.556 349.269 394.281 349.521 394.066 349.848C393.861 350.165 393.758 350.548 393.758 350.996ZM400.603 355V348H401.653L401.723 349.288V355H400.603ZM405.517 355V351.416H406.637V355H405.517ZM405.517 351.416C405.517 350.725 405.438 350.198 405.279 349.834C405.12 349.47 404.901 349.223 404.621 349.092C404.341 348.952 404.024 348.882 403.669 348.882C403.053 348.882 402.572 349.101 402.227 349.54C401.891 349.969 401.723 350.581 401.723 351.374H401.177C401.177 350.637 401.284 350.002 401.499 349.47C401.714 348.938 402.026 348.532 402.437 348.252C402.848 347.972 403.342 347.832 403.921 347.832C404.472 347.832 404.948 347.944 405.349 348.168C405.76 348.383 406.077 348.728 406.301 349.204C406.534 349.68 406.646 350.305 406.637 351.08V351.416H405.517ZM416.181 355L416.125 353.852V351.304C416.125 350.753 416.064 350.301 415.943 349.946C415.821 349.582 415.63 349.307 415.369 349.12C415.107 348.933 414.767 348.84 414.347 348.84C413.964 348.84 413.633 348.919 413.353 349.078C413.082 349.227 412.858 349.47 412.681 349.806L411.673 349.414C411.85 349.087 412.065 348.807 412.317 348.574C412.569 348.331 412.863 348.149 413.199 348.028C413.535 347.897 413.917 347.832 414.347 347.832C415 347.832 415.537 347.963 415.957 348.224C416.386 348.476 416.708 348.854 416.923 349.358C417.137 349.853 417.24 350.469 417.231 351.206L417.217 355H416.181ZM414.081 355.168C413.259 355.168 412.615 354.981 412.149 354.608C411.691 354.225 411.463 353.698 411.463 353.026C411.463 352.317 411.696 351.775 412.163 351.402C412.639 351.019 413.301 350.828 414.151 350.828H416.153V351.766H414.403C413.749 351.766 413.283 351.873 413.003 352.088C412.732 352.303 412.597 352.611 412.597 353.012C412.597 353.376 412.732 353.665 413.003 353.88C413.273 354.085 413.651 354.188 414.137 354.188C414.538 354.188 414.888 354.104 415.187 353.936C415.485 353.759 415.714 353.511 415.873 353.194C416.041 352.867 416.125 352.485 416.125 352.046H416.601C416.601 352.998 416.386 353.759 415.957 354.328C415.527 354.888 414.902 355.168 414.081 355.168ZM259.122 369L261.978 362H263.154L260.228 369H259.122ZM259.052 369L256.126 362H257.288L260.144 369H259.052ZM267.155 369.168C266.474 369.168 265.872 369.014 265.349 368.706C264.827 368.389 264.416 367.955 264.117 367.404C263.828 366.853 263.683 366.219 263.683 365.5C263.683 364.781 263.828 364.147 264.117 363.596C264.416 363.045 264.822 362.616 265.335 362.308C265.858 361.991 266.455 361.832 267.127 361.832C267.781 361.832 268.345 361.995 268.821 362.322C269.297 362.639 269.666 363.087 269.927 363.666C270.189 364.245 270.319 364.926 270.319 365.71H264.537L264.817 365.472C264.817 366.032 264.915 366.513 265.111 366.914C265.317 367.315 265.601 367.623 265.965 367.838C266.329 368.043 266.745 368.146 267.211 368.146C267.706 368.146 268.121 368.029 268.457 367.796C268.803 367.563 269.069 367.255 269.255 366.872L270.221 367.362C270.044 367.726 269.806 368.043 269.507 368.314C269.218 368.585 268.873 368.795 268.471 368.944C268.079 369.093 267.641 369.168 267.155 369.168ZM264.887 364.996L264.593 364.772H269.423L269.129 365.01C269.129 364.562 269.041 364.175 268.863 363.848C268.686 363.521 268.448 363.269 268.149 363.092C267.851 362.915 267.505 362.826 267.113 362.826C266.731 362.826 266.367 362.915 266.021 363.092C265.685 363.269 265.41 363.521 265.195 363.848C264.99 364.165 264.887 364.548 264.887 364.996ZM272.348 365.206C272.348 364.45 272.493 363.839 272.782 363.372C273.071 362.896 273.44 362.546 273.888 362.322C274.345 362.089 274.826 361.972 275.33 361.972V363.022C274.919 363.022 274.523 363.092 274.14 363.232C273.767 363.363 273.459 363.582 273.216 363.89C272.973 364.198 272.852 364.618 272.852 365.15L272.348 365.206ZM271.732 369V362H272.852V369H271.732ZM277.092 371.968C276.915 371.968 276.71 371.931 276.476 371.856C276.243 371.791 275.996 371.702 275.734 371.59L276.154 370.652C276.369 370.745 276.556 370.815 276.714 370.862C276.882 370.909 277.013 370.932 277.106 370.932C277.358 370.932 277.564 370.862 277.722 370.722C277.89 370.591 278.03 370.4 278.142 370.148L278.94 368.244L281.53 362H282.734L279.374 369.98C279.197 370.391 279.01 370.745 278.814 371.044C278.628 371.343 278.399 371.571 278.128 371.73C277.858 371.889 277.512 371.968 277.092 371.968ZM278.632 369L275.608 362H276.798L279.402 368.23L279.738 369H278.632ZM289.741 369.168C289.227 369.168 288.779 369.093 288.397 368.944C288.014 368.785 287.692 368.58 287.431 368.328C287.179 368.076 286.997 367.801 286.885 367.502L287.865 367.096C288.023 367.413 288.261 367.67 288.579 367.866C288.896 368.062 289.246 368.16 289.629 368.16C290.067 368.16 290.436 368.076 290.735 367.908C291.033 367.731 291.183 367.483 291.183 367.166C291.183 366.877 291.071 366.643 290.847 366.466C290.632 366.289 290.31 366.144 289.881 366.032L289.209 365.85C288.574 365.682 288.079 365.43 287.725 365.094C287.37 364.749 287.193 364.361 287.193 363.932C287.193 363.269 287.407 362.756 287.837 362.392C288.275 362.019 288.924 361.832 289.783 361.832C290.193 361.832 290.567 361.893 290.903 362.014C291.239 362.135 291.528 362.308 291.771 362.532C292.013 362.747 292.191 363.003 292.303 363.302L291.323 363.736C291.201 363.419 291.001 363.19 290.721 363.05C290.441 362.91 290.1 362.84 289.699 362.84C289.269 362.84 288.933 362.933 288.691 363.12C288.448 363.297 288.327 363.549 288.327 363.876C288.327 364.063 288.425 364.24 288.621 364.408C288.826 364.567 289.125 364.697 289.517 364.8L290.217 364.982C290.674 365.094 291.057 365.262 291.365 365.486C291.673 365.701 291.906 365.948 292.065 366.228C292.223 366.508 292.303 366.807 292.303 367.124C292.303 367.544 292.191 367.908 291.967 368.216C291.743 368.524 291.439 368.762 291.057 368.93C290.674 369.089 290.235 369.168 289.741 369.168ZM293.812 369V359.2H294.932V369H293.812ZM298.74 369V365.416H299.86V369H298.74ZM298.74 365.416C298.74 364.725 298.656 364.198 298.488 363.834C298.329 363.47 298.11 363.223 297.83 363.092C297.55 362.952 297.233 362.882 296.878 362.882C296.262 362.882 295.781 363.101 295.436 363.54C295.1 363.969 294.932 364.581 294.932 365.374H294.386C294.386 364.637 294.493 364.002 294.708 363.47C294.932 362.938 295.249 362.532 295.66 362.252C296.071 361.972 296.565 361.832 297.144 361.832C297.685 361.832 298.161 361.944 298.572 362.168C298.983 362.383 299.3 362.728 299.524 363.204C299.757 363.68 299.869 364.305 299.86 365.08V365.416H298.74ZM304.713 369.168C304.031 369.168 303.425 369.014 302.893 368.706C302.37 368.389 301.959 367.955 301.661 367.404C301.362 366.853 301.213 366.219 301.213 365.5C301.213 364.781 301.357 364.147 301.647 363.596C301.945 363.045 302.356 362.616 302.879 362.308C303.411 361.991 304.013 361.832 304.685 361.832C305.375 361.832 305.982 361.991 306.505 362.308C307.037 362.616 307.447 363.045 307.737 363.596C308.035 364.147 308.185 364.781 308.185 365.5C308.185 366.219 308.035 366.853 307.737 367.404C307.447 367.955 307.041 368.389 306.519 368.706C305.996 369.014 305.394 369.168 304.713 369.168ZM304.713 368.132C305.179 368.132 305.585 368.02 305.931 367.796C306.276 367.572 306.547 367.264 306.743 366.872C306.948 366.48 307.051 366.023 307.051 365.5C307.051 364.977 306.948 364.52 306.743 364.128C306.547 363.736 306.271 363.428 305.917 363.204C305.562 362.98 305.151 362.868 304.685 362.868C304.227 362.868 303.821 362.98 303.467 363.204C303.121 363.428 302.846 363.736 302.641 364.128C302.445 364.52 302.347 364.977 302.347 365.5C302.347 366.013 302.445 366.471 302.641 366.872C302.846 367.264 303.126 367.572 303.481 367.796C303.845 368.02 304.255 368.132 304.713 368.132ZM310.356 365.206C310.356 364.45 310.5 363.839 310.79 363.372C311.079 362.896 311.448 362.546 311.896 362.322C312.353 362.089 312.834 361.972 313.338 361.972V363.022C312.927 363.022 312.53 363.092 312.148 363.232C311.774 363.363 311.466 363.582 311.224 363.89C310.981 364.198 310.86 364.618 310.86 365.15L310.356 365.206ZM309.74 369V362H310.86V369H309.74ZM317.102 369.168C316.421 369.168 315.894 368.991 315.52 368.636C315.147 368.281 314.96 367.782 314.96 367.138V359.816H316.08V367.026C316.08 367.381 316.174 367.656 316.36 367.852C316.556 368.039 316.827 368.132 317.172 368.132C317.284 368.132 317.392 368.118 317.494 368.09C317.606 368.053 317.751 367.969 317.928 367.838L318.362 368.748C318.12 368.907 317.9 369.014 317.704 369.07C317.508 369.135 317.308 369.168 317.102 369.168ZM313.742 362.994V362H318.18V362.994H313.742ZM325.852 369.168C325.171 369.168 324.644 368.991 324.27 368.636C323.897 368.281 323.71 367.782 323.71 367.138V359.816H324.83V367.026C324.83 367.381 324.924 367.656 325.11 367.852C325.306 368.039 325.577 368.132 325.922 368.132C326.034 368.132 326.142 368.118 326.244 368.09C326.356 368.053 326.501 367.969 326.678 367.838L327.112 368.748C326.87 368.907 326.65 369.014 326.454 369.07C326.258 369.135 326.058 369.168 325.852 369.168ZM322.492 362.994V362H326.93V362.994H322.492ZM331.536 369.168C330.855 369.168 330.253 369.014 329.73 368.706C329.208 368.389 328.797 367.955 328.498 367.404C328.209 366.853 328.064 366.219 328.064 365.5C328.064 364.781 328.209 364.147 328.498 363.596C328.797 363.045 329.203 362.616 329.716 362.308C330.239 361.991 330.836 361.832 331.508 361.832C332.162 361.832 332.726 361.995 333.202 362.322C333.678 362.639 334.047 363.087 334.308 363.666C334.57 364.245 334.7 364.926 334.7 365.71H328.918L329.198 365.472C329.198 366.032 329.296 366.513 329.492 366.914C329.698 367.315 329.982 367.623 330.346 367.838C330.71 368.043 331.126 368.146 331.592 368.146C332.087 368.146 332.502 368.029 332.838 367.796C333.184 367.563 333.45 367.255 333.636 366.872L334.602 367.362C334.425 367.726 334.187 368.043 333.888 368.314C333.599 368.585 333.254 368.795 332.852 368.944C332.46 369.093 332.022 369.168 331.536 369.168ZM329.268 364.996L328.974 364.772H333.804L333.51 365.01C333.51 364.562 333.422 364.175 333.244 363.848C333.067 363.521 332.829 363.269 332.53 363.092C332.232 362.915 331.886 362.826 331.494 362.826C331.112 362.826 330.748 362.915 330.402 363.092C330.066 363.269 329.791 363.521 329.576 363.848C329.371 364.165 329.268 364.548 329.268 364.996ZM335.204 369L338.06 364.982L340.076 362H341.406L338.746 365.78L336.562 369H335.204ZM340.23 369L338.074 365.78L335.386 362H336.716L338.746 364.982L341.574 369H340.23ZM345.321 369.168C344.64 369.168 344.112 368.991 343.739 368.636C343.366 368.281 343.179 367.782 343.179 367.138V359.816H344.299V367.026C344.299 367.381 344.392 367.656 344.579 367.852C344.775 368.039 345.046 368.132 345.391 368.132C345.503 368.132 345.61 368.118 345.713 368.09C345.825 368.053 345.97 367.969 346.147 367.838L346.581 368.748C346.338 368.907 346.119 369.014 345.923 369.07C345.727 369.135 345.526 369.168 345.321 369.168ZM341.961 362.994V362H346.399V362.994H341.961Z" fill="#D5D5D5"/>
</svg>
