<svg width="18" height="18" viewBox="0 0 18 18" fill="none" xmlns="http://www.w3.org/2000/svg">
<path d="M3.4 11.4C2.6545 11.4 2.28174 11.4 1.9877 11.2782C1.59566 11.1158 1.28418 10.8043 1.12179 10.4123C1 10.1182 1 9.74552 1 9V3.56C1 2.66392 1 2.21587 1.17439 1.87362C1.32778 1.57255 1.57255 1.32778 1.87362 1.17439C2.21587 1 2.66392 1 3.56 1H9C9.74552 1 10.1182 1 10.4123 1.12179C10.8043 1.28418 11.1158 1.59566 11.2782 1.9877C11.4 2.28174 11.4 2.6545 11.4 3.4M9.16 17H14.44C15.3361 17 15.7842 17 16.1264 16.8256C16.4274 16.6722 16.6722 16.4274 16.8256 16.1264C17 15.7842 17 15.3361 17 14.44V9.16C17 8.26392 17 7.81584 16.8256 7.4736C16.6722 7.17255 16.4274 6.92778 16.1264 6.77439C15.7842 6.6 15.3361 6.6 14.44 6.6H9.16C8.26392 6.6 7.81584 6.6 7.4736 6.77439C7.17255 6.92778 6.92778 7.17255 6.77439 7.4736C6.6 7.81584 6.6 8.26392 6.6 9.16V14.44C6.6 15.3361 6.6 15.7842 6.77439 16.1264C6.92778 16.4274 7.17255 16.6722 7.4736 16.8256C7.81584 17 8.26392 17 9.16 17Z" stroke="#FDFDFD" stroke-width="1.6" stroke-linecap="round" stroke-linejoin="round"/>
</svg>
